<svg id="svg" version="1.1" xmlns="http://www.w3.org/2000/svg" xmlns:xlink="http://www.w3.org/1999/xlink" width="400" height="266.3636363636364" viewBox="0, 0, 400,266.3636363636364"><g id="svgg"><path id="path0" d="M72.978 67.018 C 72.918 67.078,72.092 67.302,71.144 67.515 C 70.196 67.729,68.461 68.165,67.288 68.486 C 66.116 68.806,64.497 69.228,63.691 69.424 C 62.885 69.620,61.446 69.978,60.493 70.220 C 59.540 70.462,58.101 70.826,57.295 71.029 C 54.918 71.629,52.105 72.360,47.568 73.557 C 45.223 74.176,42.825 74.777,42.239 74.893 C 40.339 75.269,34.543 76.813,33.325 77.268 C 32.041 77.747,32.089 77.650,31.052 81.812 C 30.850 82.618,30.501 83.997,30.276 84.877 C 30.050 85.756,29.628 87.435,29.339 88.608 C 29.049 89.780,28.678 91.279,28.515 91.939 C 28.351 92.598,28.051 93.738,27.848 94.470 C 27.342 96.300,26.694 98.787,26.392 100.067 C 25.937 101.996,25.541 103.517,25.249 104.464 C 25.090 104.977,24.874 105.816,24.769 106.329 C 24.664 106.842,24.070 109.181,23.449 111.526 C 22.029 116.890,21.738 118.431,22.045 118.980 C 22.177 119.215,25.305 122.438,28.997 126.143 C 32.689 129.847,35.710 133.043,35.710 133.245 C 35.710 133.446,32.592 136.744,28.781 140.573 C 24.383 144.992,21.856 147.723,21.864 148.051 C 21.880 148.794,22.208 150.220,23.298 154.297 C 23.827 156.276,24.441 158.734,24.663 159.760 C 24.884 160.786,25.143 161.805,25.237 162.025 C 25.448 162.517,25.993 164.643,27.320 170.153 C 27.567 171.179,27.837 172.199,27.921 172.418 C 28.081 172.838,28.490 174.408,29.137 177.082 C 30.112 181.109,30.830 183.828,31.591 186.373 C 31.804 187.086,31.979 187.894,31.979 188.168 C 31.979 188.826,32.998 189.233,37.218 190.259 C 39.100 190.716,40.879 191.198,41.173 191.330 C 41.466 191.461,42.065 191.619,42.505 191.679 C 42.945 191.740,45.463 192.360,48.101 193.057 C 50.740 193.754,53.558 194.482,54.364 194.674 C 55.170 194.867,56.369 195.154,57.029 195.312 C 57.688 195.470,58.827 195.773,59.560 195.986 C 61.338 196.501,62.980 196.932,64.757 197.350 C 68.364 198.199,69.464 198.485,70.087 198.734 C 70.453 198.881,71.396 199.089,72.182 199.197 L 73.612 199.392 80.499 192.501 C 84.287 188.711,87.584 185.568,87.827 185.518 C 88.113 185.458,90.728 187.880,95.274 192.414 L 102.280 199.402 103.572 199.222 C 104.282 199.123,105.403 198.869,106.063 198.658 C 107.193 198.295,108.794 197.880,112.192 197.067 C 114.934 196.411,116.852 195.921,118.987 195.332 C 120.160 195.009,121.689 194.645,122.384 194.523 C 123.080 194.402,123.789 194.217,123.959 194.112 C 124.129 194.006,124.939 193.768,125.758 193.581 C 126.578 193.395,128.148 192.994,129.247 192.690 C 130.346 192.386,131.965 191.968,132.845 191.761 C 134.596 191.348,140.419 189.882,142.275 189.386 C 143.599 189.033,144.132 188.391,144.336 186.904 C 144.413 186.338,144.634 185.456,144.826 184.943 C 145.018 184.430,145.300 183.411,145.452 182.678 C 145.895 180.540,146.525 178.022,147.118 176.016 C 147.421 174.990,147.782 173.551,147.921 172.818 C 148.060 172.085,148.352 170.856,148.570 170.087 C 149.624 166.374,150.161 164.304,150.593 162.292 C 150.734 161.632,151.026 160.463,151.241 159.694 C 152.385 155.604,153.955 149.616,154.206 148.386 C 154.338 147.740,153.682 146.999,147.396 140.703 C 142.659 135.959,140.440 133.555,140.440 133.169 C 140.440 132.783,142.667 130.369,147.415 125.608 L 154.391 118.614 154.083 117.601 C 153.913 117.044,153.463 115.330,153.082 113.791 C 152.411 111.075,152.156 110.082,151.267 106.729 C 150.794 104.940,150.087 102.147,149.752 100.733 C 149.425 99.357,148.949 97.563,148.546 96.187 C 148.351 95.519,148.109 94.440,148.010 93.789 C 147.910 93.138,147.736 92.485,147.623 92.338 C 147.510 92.192,147.289 91.375,147.133 90.524 C 146.976 89.673,146.772 88.853,146.679 88.703 C 146.512 88.432,146.007 86.404,145.461 83.811 C 145.306 83.078,145.075 82.274,144.947 82.024 C 144.819 81.774,144.634 81.054,144.538 80.425 C 144.213 78.310,143.562 77.399,142.120 77.042 C 139.015 76.274,136.483 75.611,135.326 75.261 C 134.639 75.053,133.878 74.883,133.636 74.883 C 133.393 74.883,132.396 74.656,131.420 74.379 C 130.445 74.101,128.867 73.668,127.915 73.417 C 126.962 73.165,125.583 72.795,124.850 72.593 C 124.117 72.392,122.199 71.920,120.586 71.545 C 118.974 71.169,117.415 70.762,117.122 70.639 C 116.829 70.517,115.030 70.034,113.125 69.565 C 108.845 68.513,107.180 68.098,105.130 67.573 C 102.346 66.860,102.886 66.503,95.270 74.084 C 91.441 77.895,88.158 81.013,87.975 81.013 C 87.791 81.013,84.579 77.952,80.836 74.212 C 74.476 67.857,73.256 66.740,72.978 67.018 M75.071 84.273 C 78.379 87.568,79.414 88.759,79.414 89.268 C 79.414 90.089,66.807 102.865,65.997 102.865 C 65.275 102.865,48.720 86.244,48.921 85.721 C 49.118 85.206,50.643 84.477,51.522 84.477 C 51.893 84.477,52.535 84.342,52.947 84.177 C 53.647 83.897,54.700 83.621,58.361 82.760 C 60.116 82.347,61.755 81.917,63.558 81.397 C 70.718 79.333,69.911 79.131,75.071 84.273 M109.457 80.648 C 110.888 81.033,112.718 81.500,113.524 81.685 C 114.330 81.870,115.191 82.104,115.437 82.204 C 115.683 82.305,116.582 82.547,117.436 82.743 C 119.762 83.276,121.226 83.631,122.851 84.055 C 128.552 85.541,128.965 84.442,118.954 94.435 C 113.855 99.523,110.309 102.865,110.006 102.865 C 109.369 102.865,96.469 89.976,96.469 89.340 C 96.469 89.087,98.476 86.870,100.930 84.413 C 106.012 79.324,105.456 79.570,109.457 80.648 M49.093 102.265 C 53.616 106.772,57.389 110.745,57.477 111.093 C 57.703 111.991,44.692 125.053,43.803 124.820 C 42.310 124.429,34.576 116.017,34.723 114.942 C 34.920 113.507,35.533 110.825,36.235 108.328 C 36.831 106.204,37.155 104.911,37.956 101.437 C 38.188 100.432,38.439 99.512,38.513 99.393 C 38.586 99.273,38.757 98.596,38.891 97.889 C 39.211 96.203,40.135 94.071,40.545 94.071 C 40.724 94.071,44.570 97.758,49.093 102.265 M136.435 95.470 C 136.589 96.093,136.882 97.262,137.086 98.068 C 137.290 98.874,137.593 100.073,137.759 100.733 C 137.926 101.392,138.245 102.592,138.469 103.398 C 138.693 104.204,139.047 105.683,139.256 106.685 C 139.466 107.687,139.711 108.627,139.802 108.773 C 139.892 108.920,140.122 109.719,140.313 110.549 C 140.504 111.379,140.787 112.538,140.943 113.125 C 141.627 115.699,141.658 115.644,136.906 120.389 C 133.864 123.428,132.393 124.717,131.970 124.717 C 131.237 124.717,118.321 111.936,118.321 111.210 C 118.321 110.955,122.009 107.055,126.516 102.543 C 135.615 93.433,135.884 93.241,136.435 95.470 M95.087 104.293 C 100.165 109.371,101.560 110.911,101.489 111.364 C 101.344 112.299,88.809 124.717,88.010 124.717 C 87.047 124.717,74.250 111.861,74.483 111.127 C 74.750 110.286,87.475 97.806,88.069 97.804 C 88.403 97.802,90.968 100.174,95.087 104.293 M178.074 109.142 L 177.482 109.557 177.482 133.759 L 177.482 157.961 178.314 158.128 C 179.385 158.342,188.230 158.346,188.786 158.133 C 189.155 157.991,189.207 157.099,189.207 150.864 C 189.207 141.793,188.749 142.571,194.086 142.573 C 202.916 142.577,208.131 140.619,211.479 136.043 C 215.617 130.386,215.624 120.687,211.495 115.256 C 209.608 112.775,206.310 110.333,204.834 110.325 C 204.667 110.324,204.202 110.152,203.800 109.942 C 201.666 108.829,179.506 108.140,178.074 109.142 M223.888 109.083 C 223.416 109.651,223.449 157.777,223.921 158.077 C 224.433 158.402,249.373 158.346,249.984 158.019 C 250.509 157.738,250.786 149.929,250.332 148.235 L 250.171 147.635 243.557 147.635 C 239.905 147.635,236.637 147.519,236.260 147.375 L 235.576 147.115 235.576 128.354 C 235.576 111.240,235.538 109.560,235.136 109.227 C 234.467 108.670,224.337 108.541,223.888 109.083 M276.349 108.952 C 275.604 109.170,275.205 109.867,273.805 113.391 C 273.281 114.710,272.680 116.129,272.469 116.544 C 272.258 116.959,272.085 117.418,272.085 117.564 C 272.085 117.862,270.394 122.046,269.804 123.206 C 269.593 123.621,269.420 124.080,269.420 124.226 C 269.420 124.372,269.012 125.471,268.512 126.669 C 268.012 127.867,267.103 130.107,266.492 131.646 C 265.882 133.185,265.271 134.558,265.136 134.697 C 265.001 134.836,264.890 135.163,264.890 135.423 C 264.890 135.682,264.661 136.408,264.380 137.035 C 264.100 137.662,263.488 139.134,263.022 140.306 C 262.555 141.479,261.949 142.978,261.676 143.638 C 261.402 144.297,260.328 146.995,259.290 149.634 C 258.252 152.272,257.246 154.790,257.054 155.230 C 255.748 158.228,255.805 157.959,256.446 158.131 C 257.294 158.358,268.439 158.322,268.755 158.091 C 269.225 157.746,270.132 155.567,270.803 153.170 C 270.956 152.623,271.362 151.874,271.704 151.504 L 272.326 150.833 280.559 150.833 C 289.861 150.833,289.367 150.720,290.063 153.006 C 290.257 153.643,290.536 154.464,290.683 154.830 C 290.830 155.197,291.105 156.013,291.293 156.645 C 291.774 158.261,291.918 158.295,298.250 158.291 C 305.020 158.286,305.217 158.255,304.704 157.271 C 304.500 156.881,304.333 156.422,304.332 156.251 C 304.331 156.079,304.156 155.600,303.943 155.185 C 303.730 154.770,303.118 153.291,302.583 151.899 C 302.048 150.506,301.443 148.989,301.239 148.527 C 301.034 148.065,300.862 147.586,300.857 147.461 C 300.852 147.337,300.616 146.755,300.333 146.169 C 300.050 145.583,299.814 144.900,299.809 144.653 C 299.804 144.405,299.698 144.139,299.572 144.061 C 299.447 143.984,299.073 143.167,298.741 142.247 C 298.410 141.326,297.930 140.093,297.675 139.507 C 297.420 138.921,296.769 137.302,296.228 135.909 C 295.688 134.517,295.071 133.038,294.858 132.623 C 294.645 132.208,294.466 131.729,294.461 131.557 C 294.456 131.386,294.221 130.766,293.937 130.180 C 293.654 129.594,293.415 128.934,293.405 128.714 C 293.395 128.494,293.211 128.082,292.996 127.797 C 292.781 127.513,292.605 127.116,292.605 126.916 C 292.605 126.588,292.258 125.722,291.120 123.211 C 290.911 122.749,290.740 122.202,290.740 121.996 C 290.740 121.790,290.563 121.388,290.348 121.104 C 290.133 120.819,289.953 120.430,289.949 120.239 C 289.944 120.047,289.721 119.388,289.454 118.773 C 289.187 118.158,288.781 117.175,288.552 116.589 C 287.672 114.339,287.164 113.085,286.695 112.007 C 286.428 111.392,286.209 110.723,286.209 110.521 C 286.209 109.093,279.509 108.027,276.349 108.952 M312.658 109.002 L 312.059 109.243 312.059 133.624 L 312.059 158.004 312.925 158.161 C 313.401 158.247,316.129 158.282,318.987 158.239 L 324.184 158.161 324.252 133.611 L 324.320 109.061 323.486 108.894 C 322.214 108.640,313.340 108.728,312.658 109.002 M336.374 108.901 L 335.773 109.031 335.841 133.596 L 335.909 158.161 347.235 158.142 C 358.847 158.122,361.732 157.877,363.965 156.720 C 364.217 156.589,365.382 156.020,366.554 155.456 C 369.473 154.051,373.029 150.580,374.979 147.235 C 378.162 141.771,379.178 132.473,377.351 125.516 C 376.950 123.986,375.805 121.383,374.593 119.241 C 373.666 117.604,369.386 112.991,368.793 112.991 C 368.683 112.991,368.434 112.839,368.240 112.653 C 367.029 111.488,362.912 109.980,359.227 109.351 C 356.995 108.971,337.794 108.592,336.374 108.901 M72.939 126.109 C 78.160 131.314,79.414 132.701,79.414 133.274 C 79.414 133.847,78.202 135.187,73.156 140.197 C 66.232 147.071,66.283 147.029,65.446 146.581 C 64.217 145.924,52.498 133.908,52.498 133.306 C 52.498 132.596,65.312 119.654,66.015 119.654 C 66.262 119.654,69.378 122.558,72.939 126.109 M117.067 126.271 C 120.688 129.911,123.651 133.043,123.651 133.230 C 123.651 133.719,110.843 146.469,110.135 146.686 C 109.525 146.872,96.203 133.966,96.203 133.189 C 96.203 132.603,109.337 119.654,109.931 119.654 C 110.298 119.654,112.693 121.875,117.067 126.271 M199.334 120.397 C 203.706 122.523,204.270 127.917,200.389 130.485 C 198.246 131.903,191.046 132.481,189.824 131.333 C 188.874 130.440,188.859 120.735,189.807 120.050 C 190.777 119.349,197.697 119.601,199.334 120.397 M357.065 119.936 C 360.184 120.655,362.970 122.775,364.263 125.412 C 364.615 126.129,365.008 126.929,365.137 127.190 C 367.960 132.908,365.125 143.688,360.188 146.007 C 357.192 147.414,349.274 148.175,348.249 147.155 C 347.668 146.577,347.602 120.658,348.180 120.080 C 348.684 119.575,355.054 119.472,357.065 119.936 M281.394 126.013 C 281.673 126.560,281.986 127.481,282.091 128.060 C 282.196 128.640,282.372 129.234,282.482 129.380 C 282.593 129.527,282.764 130.067,282.862 130.580 C 282.960 131.093,283.199 131.932,283.394 132.445 C 283.588 132.958,284.006 134.277,284.322 135.376 C 284.638 136.476,285.026 137.735,285.184 138.175 C 286.248 141.139,286.096 141.239,280.500 141.239 C 275.099 141.239,274.632 141.029,275.659 139.059 C 275.865 138.665,276.115 137.946,276.216 137.460 C 276.318 136.973,276.751 135.496,277.180 134.177 C 277.609 132.858,278.217 130.939,278.530 129.913 C 279.205 127.706,280.054 125.241,280.246 124.930 C 280.463 124.579,280.847 124.940,281.394 126.013 M95.125 148.295 C 100.824 154.011,101.563 154.849,101.398 155.402 C 101.107 156.374,88.618 168.688,87.924 168.688 C 87.166 168.688,74.350 155.979,74.350 155.228 C 74.350 154.357,87.405 141.484,88.103 141.667 C 88.411 141.748,91.571 144.730,95.125 148.295 M51.088 148.229 C 55.321 152.450,57.562 154.874,57.562 155.230 C 57.562 155.799,41.158 172.418,40.596 172.418 C 40.213 172.418,39.829 171.910,39.591 171.086 C 39.192 169.710,38.337 166.379,38.085 165.223 C 37.942 164.564,37.648 163.394,37.433 162.625 C 36.202 158.221,35.816 156.726,35.320 154.430 C 35.130 153.551,34.856 152.532,34.710 152.165 C 34.562 151.793,34.540 151.244,34.661 150.921 C 35.046 149.890,43.344 141.772,44.013 141.772 C 44.444 141.772,46.460 143.612,51.088 148.229 M136.947 146.103 L 141.290 150.433 141.160 151.899 C 141.089 152.705,140.853 153.964,140.635 154.697 C 140.047 156.673,139.642 158.267,139.347 159.760 C 139.202 160.493,138.909 161.545,138.696 162.097 C 138.482 162.650,138.308 163.386,138.308 163.732 C 138.308 164.079,138.129 164.706,137.910 165.126 C 137.691 165.546,137.511 166.217,137.510 166.617 C 137.509 167.017,137.338 167.796,137.130 168.349 C 136.922 168.902,136.671 169.833,136.573 170.420 C 136.364 171.671,136.027 172.152,135.362 172.152 C 134.742 172.152,118.321 155.816,118.321 155.199 C 118.321 154.400,131.104 141.772,131.913 141.772 C 132.450 141.772,133.570 142.735,136.947 146.103 M72.939 170.079 C 77.673 174.799,79.414 176.700,79.414 177.152 C 79.414 178.098,70.950 186.542,70.002 186.542 C 69.617 186.542,68.129 186.233,66.696 185.855 C 64.083 185.166,62.160 184.679,59.427 184.014 C 58.621 183.819,57.002 183.399,55.829 183.082 C 54.657 182.766,52.966 182.341,52.072 182.138 C 50.054 181.682,49.110 181.262,48.906 180.730 C 48.695 180.180,65.179 163.624,65.938 163.624 C 66.269 163.624,68.863 166.016,72.939 170.079 M118.786 171.950 C 123.367 176.530,127.115 180.424,127.115 180.604 C 127.115 181.065,125.794 181.695,124.131 182.028 C 123.354 182.183,122.478 182.414,122.185 182.542 C 121.892 182.669,120.513 183.034,119.121 183.352 C 116.598 183.930,115.240 184.277,112.458 185.058 C 106.995 186.591,105.957 186.776,105.263 186.340 C 104.262 185.712,96.579 177.960,96.365 177.362 C 96.130 176.706,109.041 163.624,109.923 163.624 C 110.268 163.624,113.407 166.574,118.786 171.950 " stroke="none" fill="#171717" fill-rule="evenodd"></path><path id="path1" d="M0.000 133.245 L 0.000 266.489 200.000 266.489 L 400.000 266.489 400.000 133.245 L 400.000 0.000 200.000 0.000 L 0.000 0.000 0.000 133.245 M81.044 73.183 C 86.728 78.863,87.953 79.967,88.337 79.752 C 88.590 79.610,91.759 76.538,95.379 72.925 L 101.960 66.356 103.329 66.356 C 104.083 66.356,104.766 66.465,104.849 66.599 C 104.932 66.733,105.508 66.925,106.131 67.026 C 107.226 67.204,109.852 67.846,112.592 68.606 C 115.897 69.523,116.942 69.798,118.188 70.078 C 121.045 70.722,122.489 71.075,123.384 71.350 C 125.517 72.005,127.305 72.477,128.181 72.618 C 128.694 72.701,129.744 72.944,130.513 73.160 C 133.778 74.073,136.301 74.712,138.841 75.269 C 139.647 75.446,140.568 75.731,140.889 75.903 C 141.209 76.075,141.868 76.220,142.354 76.225 C 143.950 76.241,144.928 77.746,145.639 81.279 C 145.742 81.792,146.165 83.411,146.580 84.877 C 146.994 86.342,147.417 88.129,147.520 88.847 C 147.623 89.564,147.870 90.464,148.069 90.845 C 148.268 91.227,148.432 91.813,148.433 92.147 C 148.434 92.482,148.606 93.167,148.816 93.669 C 149.026 94.172,149.284 95.155,149.389 95.855 C 149.494 96.554,149.742 97.514,149.940 97.988 C 150.138 98.462,150.300 99.200,150.300 99.628 C 150.300 100.056,150.479 100.749,150.698 101.169 C 150.917 101.589,151.097 102.144,151.098 102.404 C 151.099 102.664,151.351 103.803,151.659 104.936 C 152.391 107.630,152.854 109.385,153.220 110.859 C 153.384 111.519,153.699 112.718,153.920 113.524 C 154.140 114.330,154.433 115.410,154.569 115.923 C 154.706 116.436,154.820 117.433,154.824 118.140 L 154.830 119.424 148.035 126.211 C 144.297 129.944,141.239 133.084,141.239 133.190 C 141.239 133.295,144.297 136.438,148.035 140.173 L 154.830 146.965 154.830 148.356 C 154.830 149.122,154.661 150.262,154.455 150.890 C 154.248 151.518,153.997 152.452,153.897 152.965 C 153.797 153.478,153.555 154.437,153.360 155.097 C 152.576 157.742,152.181 159.278,152.025 160.293 C 151.935 160.879,151.698 161.899,151.500 162.558 C 150.857 164.694,149.952 168.155,149.354 170.769 C 149.142 171.694,148.849 172.675,148.702 172.950 C 148.555 173.225,148.434 173.787,148.433 174.200 C 148.432 174.612,148.252 175.294,148.033 175.713 C 147.814 176.133,147.633 176.673,147.630 176.913 C 147.628 177.152,147.260 178.787,146.814 180.546 C 146.367 182.305,145.887 184.224,145.746 184.810 C 145.605 185.396,145.387 186.176,145.260 186.542 C 145.133 186.909,144.900 187.690,144.741 188.279 C 144.418 189.480,143.382 190.272,142.131 190.275 C 141.714 190.276,141.035 190.452,140.622 190.668 C 140.210 190.883,139.251 191.138,138.491 191.235 C 137.730 191.331,136.900 191.518,136.646 191.649 C 136.392 191.780,135.672 191.990,135.047 192.116 C 133.085 192.513,130.464 193.212,130.019 193.457 C 129.784 193.587,129.005 193.772,128.287 193.868 C 127.569 193.965,126.442 194.203,125.783 194.399 C 125.123 194.594,123.924 194.948,123.118 195.186 C 122.312 195.424,121.113 195.731,120.453 195.869 C 117.557 196.476,115.556 196.970,115.156 197.177 C 114.918 197.300,114.136 197.486,113.419 197.590 C 112.701 197.694,111.921 197.885,111.686 198.015 C 111.191 198.288,108.467 199.004,106.284 199.435 C 105.453 199.599,104.683 199.823,104.574 199.933 C 104.464 200.043,103.806 200.133,103.111 200.133 L 101.847 200.133 95.227 193.521 C 91.586 189.884,88.384 186.825,88.110 186.722 C 87.712 186.572,86.267 187.873,80.837 193.268 C 73.571 200.487,73.636 200.436,72.224 200.078 C 71.708 199.948,70.626 199.684,69.820 199.492 C 67.479 198.935,65.813 198.500,63.979 197.966 C 63.038 197.692,62.041 197.468,61.763 197.468 C 61.485 197.468,61.041 197.352,60.776 197.211 C 60.511 197.069,59.530 196.778,58.595 196.565 C 57.660 196.351,56.176 195.993,55.296 195.770 C 54.417 195.547,53.158 195.230,52.498 195.066 C 51.839 194.901,50.759 194.604,50.100 194.405 C 49.440 194.206,48.330 193.961,47.632 193.860 C 46.934 193.759,46.304 193.581,46.232 193.465 C 46.161 193.349,45.492 193.171,44.746 193.068 C 44.000 192.965,43.071 192.715,42.681 192.512 C 42.291 192.308,41.634 192.141,41.222 192.140 C 40.809 192.139,40.244 192.017,39.966 191.868 C 39.688 191.719,38.646 191.427,37.652 191.219 C 31.299 189.891,31.426 189.994,30.377 185.343 C 30.046 183.877,29.663 182.364,29.527 181.980 C 29.390 181.596,29.118 180.577,28.923 179.715 C 28.727 178.853,28.251 176.949,27.864 175.483 C 27.477 174.017,27.052 172.338,26.919 171.752 C 26.786 171.166,26.480 169.967,26.239 169.087 C 25.998 168.208,25.577 166.589,25.304 165.490 C 25.030 164.390,24.672 162.951,24.507 162.292 C 24.342 161.632,24.085 160.733,23.935 160.293 C 23.785 159.853,23.564 158.932,23.442 158.246 C 23.321 157.559,23.106 156.780,22.963 156.513 C 22.821 156.247,22.615 155.432,22.505 154.701 C 22.396 153.971,22.144 152.985,21.946 152.511 C 21.748 152.037,21.586 151.350,21.586 150.984 C 21.586 150.617,21.390 149.907,21.150 149.404 C 20.428 147.890,20.718 147.500,27.844 140.396 C 31.584 136.667,34.644 133.476,34.644 133.304 C 34.644 133.132,31.514 129.856,27.689 126.024 C 20.071 118.391,20.445 118.940,21.264 116.589 C 21.640 115.510,22.109 113.626,23.320 108.339 C 23.553 107.319,23.844 106.360,23.966 106.207 C 24.088 106.054,24.246 105.510,24.317 104.997 C 24.389 104.484,24.771 102.865,25.166 101.399 C 25.561 99.933,26.050 98.075,26.252 97.268 C 26.455 96.462,26.802 95.083,27.023 94.204 C 27.244 93.324,27.619 91.765,27.856 90.740 C 28.093 89.714,28.399 88.634,28.535 88.341 C 28.672 88.048,28.897 87.268,29.035 86.609 C 29.312 85.278,29.707 83.690,30.259 81.679 C 30.460 80.946,30.706 79.827,30.806 79.193 C 31.030 77.768,32.378 76.216,33.392 76.216 C 33.768 76.216,34.413 76.081,34.826 75.917 C 35.239 75.752,36.296 75.469,37.175 75.286 C 39.339 74.838,41.274 74.362,42.239 74.041 C 43.132 73.744,45.549 73.137,47.568 72.703 C 48.301 72.546,49.353 72.253,49.905 72.051 C 50.458 71.850,51.215 71.686,51.589 71.686 C 51.962 71.686,52.520 71.550,52.830 71.384 C 53.396 71.081,55.152 70.630,58.361 69.962 C 59.314 69.764,60.453 69.481,60.893 69.334 C 62.748 68.713,66.695 67.669,69.635 67.023 C 70.485 66.835,71.255 66.609,71.345 66.519 C 71.434 66.429,72.117 66.356,72.861 66.356 L 74.213 66.356 81.044 73.183 M68.088 81.176 C 65.259 81.783,63.131 82.298,62.672 82.486 C 62.426 82.586,61.566 82.827,60.759 83.020 C 59.953 83.213,58.574 83.556,57.695 83.782 C 56.815 84.007,55.137 84.427,53.964 84.714 C 50.010 85.684,49.752 85.789,50.148 86.275 C 52.492 89.150,65.960 102.020,66.328 101.736 C 67.612 100.745,78.606 89.615,78.610 89.302 C 78.616 88.795,71.150 81.364,70.338 81.069 C 69.923 80.918,69.107 80.957,68.088 81.176 M101.634 84.792 C 99.379 87.017,97.535 89.027,97.535 89.258 C 97.535 89.793,109.529 101.799,110.064 101.799 C 110.442 101.799,126.049 86.403,126.049 86.030 C 126.049 85.771,121.364 84.449,118.454 83.888 C 117.722 83.746,117.002 83.535,116.855 83.418 C 116.709 83.301,116.049 83.125,115.390 83.026 C 114.730 82.928,113.951 82.737,113.658 82.601 C 113.364 82.465,112.345 82.182,111.392 81.973 C 110.440 81.763,109.181 81.475,108.594 81.332 C 105.587 80.601,106.178 80.307,101.634 84.792 M127.182 103.014 C 122.895 107.308,119.387 110.981,119.387 111.176 C 119.387 111.688,131.434 123.651,131.950 123.651 C 132.515 123.651,140.439 115.729,140.443 115.159 C 140.448 114.585,139.638 110.874,139.360 110.193 C 139.103 109.563,137.570 103.578,137.177 101.666 C 137.026 100.933,136.739 99.955,136.539 99.493 C 136.339 99.032,136.176 98.420,136.176 98.134 C 136.176 97.430,135.642 95.871,135.275 95.505 C 135.055 95.285,132.928 97.259,127.182 103.014 M40.240 96.064 C 40.240 96.427,40.070 97.177,39.861 97.729 C 39.653 98.282,39.405 99.214,39.309 99.800 C 39.146 100.803,38.950 101.522,37.975 104.699 C 37.755 105.415,37.575 106.289,37.575 106.641 C 37.575 106.992,37.335 107.963,37.042 108.797 C 36.749 109.631,36.509 110.541,36.509 110.820 C 36.509 111.099,36.324 111.770,36.098 112.311 C 35.872 112.852,35.667 113.856,35.642 114.542 L 35.597 115.789 39.490 119.681 C 41.631 121.821,43.592 123.653,43.847 123.751 C 44.639 124.055,56.949 111.545,56.461 110.931 C 55.289 109.455,40.973 95.403,40.641 95.403 C 40.392 95.403,40.240 95.653,40.240 96.064 M81.754 104.624 C 78.425 107.937,75.634 110.861,75.551 111.121 C 75.342 111.780,87.494 123.915,88.184 123.734 C 89.229 123.461,100.790 111.464,100.508 110.946 C 100.156 110.299,88.343 98.601,88.042 98.601 C 87.913 98.601,85.083 101.311,81.754 104.624 M202.345 108.690 C 207.440 110.005,211.369 112.647,212.983 115.843 C 213.190 116.253,213.488 116.829,213.646 117.122 C 218.679 126.503,213.543 139.762,203.927 142.211 C 200.842 142.997,200.183 143.081,195.869 143.242 C 193.451 143.331,191.203 143.459,190.873 143.526 L 190.273 143.648 190.273 150.838 C 190.273 160.026,191.056 159.094,183.338 159.094 L 177.468 159.094 177.209 158.410 C 176.928 157.673,176.836 109.842,177.113 108.808 C 177.345 107.944,177.247 107.950,189.207 108.056 C 199.231 108.144,200.461 108.204,202.345 108.690 M235.537 108.221 L 236.376 108.513 236.376 127.120 C 236.376 137.353,236.449 145.916,236.538 146.147 C 236.679 146.516,237.517 146.569,243.187 146.569 C 247.543 146.569,249.898 146.671,250.354 146.878 L 251.033 147.187 251.033 152.865 C 251.033 158.205,251.002 158.559,250.517 158.818 C 249.505 159.360,223.749 159.181,223.076 158.628 L 222.509 158.161 222.580 133.386 L 222.652 108.610 223.318 108.273 C 224.180 107.837,234.311 107.793,235.537 108.221 M285.532 108.191 C 285.912 108.335,286.297 108.665,286.389 108.923 C 286.480 109.182,286.776 109.897,287.048 110.512 C 287.319 111.127,287.542 111.746,287.542 111.889 C 287.542 112.032,287.719 112.488,287.936 112.903 C 288.152 113.318,288.999 115.396,289.817 117.522 C 290.636 119.647,291.478 121.764,291.689 122.225 C 291.899 122.687,292.076 123.167,292.081 123.291 C 292.086 123.416,292.322 123.997,292.605 124.584 C 292.888 125.170,293.124 125.852,293.129 126.100 C 293.134 126.348,293.245 126.617,293.377 126.699 C 293.508 126.780,293.953 127.776,294.365 128.913 C 294.777 130.049,295.268 131.279,295.457 131.646 C 295.645 132.012,295.800 132.452,295.801 132.623 C 295.802 132.795,295.973 133.274,296.181 133.689 C 296.390 134.104,296.770 134.983,297.028 135.643 C 297.285 136.302,297.715 137.345,297.982 137.960 C 298.249 138.575,298.468 139.179,298.468 139.303 C 298.468 139.426,298.708 139.998,299.001 140.573 C 299.294 141.148,299.534 141.826,299.534 142.079 C 299.534 142.333,299.640 142.606,299.771 142.687 C 299.901 142.767,300.089 143.164,300.188 143.568 C 300.287 143.973,300.720 145.054,301.150 145.970 C 301.580 146.887,301.932 147.788,301.932 147.973 C 301.932 148.158,302.172 148.757,302.465 149.303 C 302.758 149.850,302.998 150.468,302.998 150.677 C 302.998 150.885,303.175 151.396,303.391 151.811 C 305.022 154.944,305.927 158.055,305.394 158.697 C 304.943 159.240,292.199 159.275,291.488 158.734 C 291.054 158.404,290.469 157.059,289.907 155.097 C 289.760 154.584,289.467 153.786,289.257 153.324 C 289.046 152.862,288.874 152.353,288.874 152.192 C 288.874 151.985,286.439 151.899,280.614 151.899 L 272.354 151.899 271.860 153.031 C 270.986 155.035,270.220 157.096,270.220 157.446 C 270.220 157.633,269.926 158.080,269.566 158.440 L 268.912 159.094 262.403 159.094 C 255.098 159.094,255.097 159.094,255.389 157.295 C 255.478 156.748,255.673 156.259,255.823 156.209 C 255.973 156.159,256.096 155.871,256.096 155.570 C 256.096 155.070,256.599 153.801,257.587 151.811 C 257.793 151.396,257.965 150.916,257.970 150.745 C 257.975 150.573,258.211 149.953,258.494 149.367 C 258.778 148.781,259.013 148.161,259.018 147.990 C 259.023 147.818,259.207 147.309,259.427 146.857 C 259.647 146.405,260.007 145.666,260.227 145.215 C 260.446 144.763,260.630 144.254,260.635 144.082 C 260.640 143.911,260.876 143.291,261.159 142.705 C 261.442 142.119,261.678 141.499,261.683 141.327 C 261.688 141.156,261.866 140.676,262.079 140.261 C 262.292 139.846,262.737 138.787,263.069 137.908 C 263.400 137.029,263.826 136.073,264.014 135.783 C 264.203 135.494,264.357 135.011,264.357 134.710 C 264.357 134.409,264.515 133.926,264.708 133.637 C 264.901 133.348,265.279 132.512,265.547 131.779 C 265.815 131.046,266.244 129.967,266.500 129.380 C 266.756 128.794,267.238 127.595,267.570 126.716 C 267.903 125.836,268.406 124.577,268.688 123.917 C 269.584 121.826,269.644 121.672,269.954 120.657 C 270.122 120.109,270.370 119.592,270.506 119.508 C 270.642 119.424,270.753 119.111,270.753 118.813 C 270.753 118.514,270.928 117.952,271.142 117.563 C 271.786 116.389,272.618 114.377,272.618 113.990 C 272.618 113.790,272.794 113.393,273.010 113.109 C 273.225 112.824,273.409 112.412,273.418 112.192 C 273.428 111.972,273.668 111.312,273.951 110.726 C 274.234 110.140,274.470 109.519,274.475 109.346 C 274.511 108.071,282.908 107.193,285.532 108.191 M324.466 108.306 C 325.187 108.833,325.428 157.380,324.715 158.468 L 324.305 159.094 318.269 159.094 C 313.027 159.094,312.170 159.036,311.746 158.653 C 311.281 158.232,311.259 157.107,311.259 133.654 C 311.259 108.125,311.244 108.500,312.325 108.113 C 313.318 107.758,323.948 107.927,324.466 108.306 M360.027 108.559 C 364.278 109.644,367.531 110.956,369.326 112.309 C 370.514 113.204,374.177 117.034,374.816 118.049 C 376.035 119.987,377.357 122.640,377.604 123.646 C 377.731 124.162,377.956 124.943,378.104 125.383 C 379.149 128.478,379.556 135.625,378.828 138.078 C 378.601 138.844,378.410 139.898,378.405 140.421 C 378.400 140.944,378.224 141.672,378.015 142.039 C 377.805 142.405,377.630 142.921,377.624 143.186 C 377.546 147.180,371.147 154.349,365.250 157.049 C 364.394 157.441,363.492 157.761,363.246 157.761 C 362.999 157.761,362.684 157.869,362.545 158.001 C 361.748 158.753,356.684 159.094,346.298 159.094 L 335.788 159.094 335.378 158.468 C 334.775 157.547,334.893 109.071,335.500 108.339 C 336.060 107.664,357.266 107.854,360.027 108.559 M59.663 126.717 C 56.236 130.164,53.396 133.088,53.354 133.213 C 53.311 133.339,56.110 136.276,59.574 139.740 L 65.872 146.037 66.580 145.513 C 66.970 145.225,69.912 142.358,73.118 139.142 L 78.948 133.295 72.851 127.207 C 69.498 123.859,66.561 120.968,66.325 120.784 C 65.954 120.494,65.057 121.292,59.663 126.717 M103.439 126.721 C 100.017 130.151,97.260 133.087,97.313 133.245 C 97.509 133.834,109.658 145.783,109.987 145.711 C 110.440 145.612,122.585 133.530,122.585 133.178 C 122.585 132.814,110.268 120.448,109.927 120.469 C 109.780 120.478,106.861 123.292,103.439 126.721 M190.273 125.673 L 190.273 130.894 194.337 130.787 C 200.587 130.623,202.314 129.277,201.920 124.878 C 201.644 121.789,199.090 120.453,193.460 120.453 L 190.273 120.453 190.273 125.673 M348.568 133.373 L 348.568 146.292 349.276 146.470 C 353.088 147.427,361.463 145.402,362.382 143.302 C 362.432 143.188,362.612 142.943,362.782 142.756 C 363.072 142.439,363.425 141.867,364.005 140.773 C 365.765 137.452,365.653 129.860,363.790 126.238 C 361.564 121.909,358.674 120.453,352.307 120.453 L 348.568 120.453 348.568 133.373 M279.857 128.516 C 279.515 129.724,279.065 131.107,278.858 131.588 C 278.651 132.069,278.481 132.695,278.481 132.978 C 278.481 133.261,278.310 133.887,278.102 134.368 C 277.893 134.849,277.414 136.251,277.037 137.483 C 276.105 140.528,276.034 140.472,280.718 140.380 L 284.477 140.306 284.390 138.977 C 284.343 138.246,284.204 137.527,284.082 137.378 C 283.876 137.128,283.509 135.930,282.612 132.578 C 282.415 131.845,282.131 130.886,281.979 130.446 C 280.909 127.345,280.544 126.316,280.514 126.317 C 280.495 126.318,280.200 127.307,279.857 128.516 M81.612 148.573 C 78.205 151.987,75.416 154.962,75.416 155.182 C 75.416 155.903,87.717 167.885,88.192 167.626 C 88.485 167.466,99.448 156.599,100.694 155.234 C 100.788 155.130,88.959 143.219,88.208 142.661 C 87.880 142.417,86.688 143.486,81.612 148.573 M39.683 146.745 L 35.422 151.006 35.602 152.185 C 35.701 152.834,35.886 153.567,36.013 153.815 C 36.224 154.226,36.466 155.179,37.317 158.961 C 37.686 160.603,38.166 162.386,38.892 164.823 C 39.198 165.849,39.451 166.989,39.454 167.355 C 39.457 167.722,39.631 168.321,39.840 168.688 C 40.050 169.054,40.225 169.736,40.230 170.204 C 40.236 170.672,40.362 171.130,40.511 171.222 C 40.737 171.362,55.390 156.989,56.456 155.583 C 56.754 155.190,47.155 145.046,44.416 142.861 C 43.986 142.518,43.562 142.866,39.683 146.745 M125.492 148.634 C 122.140 151.969,119.394 154.885,119.392 155.115 C 119.387 155.583,134.691 170.953,135.162 170.953 C 135.511 170.953,136.125 169.390,136.157 168.421 C 136.169 168.055,136.358 167.411,136.577 166.992 C 136.796 166.572,136.975 165.950,136.975 165.610 C 136.975 165.270,137.103 164.656,137.259 164.245 C 137.415 163.835,137.703 162.778,137.899 161.896 C 138.095 161.014,138.516 159.334,138.836 158.161 C 139.569 155.476,140.196 152.823,140.368 151.690 C 140.504 150.789,132.931 142.590,131.950 142.577 C 131.751 142.574,128.845 145.300,125.492 148.634 M57.770 172.421 C 50.824 179.349,49.774 180.498,50.233 180.674 C 51.522 181.167,53.521 181.714,54.575 181.862 C 55.205 181.950,55.924 182.135,56.174 182.273 C 56.424 182.411,57.229 182.657,57.961 182.821 C 61.290 183.565,62.477 183.860,63.126 184.106 C 63.510 184.251,64.304 184.447,64.890 184.542 C 65.476 184.637,66.470 184.886,67.098 185.095 C 69.860 186.017,70.083 185.911,74.337 181.644 C 76.438 179.536,78.269 177.612,78.406 177.369 C 78.621 176.984,68.709 166.643,66.293 164.731 C 65.887 164.410,64.980 165.228,57.770 172.421 M103.313 170.810 C 98.139 176.005,97.271 176.989,97.494 177.405 C 97.811 177.998,104.647 184.877,105.396 185.357 C 105.950 185.712,108.799 185.407,109.400 184.928 C 109.551 184.809,110.330 184.627,111.133 184.525 C 111.935 184.422,112.891 184.191,113.258 184.011 C 113.624 183.832,114.458 183.603,115.110 183.503 C 115.762 183.403,116.422 183.221,116.576 183.098 C 116.730 182.976,117.515 182.746,118.321 182.588 C 121.099 182.041,123.454 181.461,123.934 181.204 C 124.199 181.062,124.633 180.944,124.899 180.942 C 126.582 180.928,126.276 180.541,118.275 172.564 C 113.562 167.866,110.178 164.693,109.885 164.697 C 109.604 164.701,106.790 167.319,103.313 170.810 " stroke="none" fill="#fbfbfb" fill-rule="evenodd"></path><path id="path2" d="M71.345 66.519 C 71.255 66.609,70.485 66.835,69.635 67.023 C 66.695 67.669,62.748 68.713,60.893 69.334 C 60.453 69.481,59.314 69.764,58.361 69.962 C 55.152 70.630,53.396 71.081,52.830 71.384 C 52.520 71.550,51.962 71.686,51.589 71.686 C 51.215 71.686,50.458 71.850,49.905 72.051 C 49.353 72.253,48.301 72.546,47.568 72.703 C 45.549 73.137,43.132 73.744,42.239 74.041 C 41.274 74.362,39.339 74.838,37.175 75.286 C 36.296 75.469,35.239 75.752,34.826 75.917 C 34.413 76.081,33.768 76.216,33.392 76.216 C 32.378 76.216,31.030 77.768,30.806 79.193 C 30.706 79.827,30.460 80.946,30.259 81.679 C 29.707 83.690,29.312 85.278,29.035 86.609 C 28.897 87.268,28.672 88.048,28.535 88.341 C 28.399 88.634,28.093 89.714,27.856 90.740 C 27.619 91.765,27.244 93.324,27.023 94.204 C 26.802 95.083,26.455 96.462,26.252 97.268 C 26.050 98.075,25.561 99.933,25.166 101.399 C 24.771 102.865,24.389 104.484,24.317 104.997 C 24.246 105.510,24.088 106.054,23.966 106.207 C 23.844 106.360,23.553 107.319,23.320 108.339 C 22.109 113.626,21.640 115.510,21.264 116.589 C 20.445 118.940,20.071 118.391,27.689 126.024 C 31.514 129.856,34.644 133.132,34.644 133.304 C 34.644 133.476,31.584 136.667,27.844 140.396 C 20.718 147.500,20.428 147.890,21.150 149.404 C 21.390 149.907,21.586 150.617,21.586 150.984 C 21.586 151.350,21.748 152.037,21.946 152.511 C 22.144 152.985,22.396 153.971,22.505 154.701 C 22.615 155.432,22.821 156.247,22.963 156.513 C 23.106 156.780,23.321 157.559,23.442 158.246 C 23.564 158.932,23.785 159.853,23.935 160.293 C 24.085 160.733,24.342 161.632,24.507 162.292 C 24.672 162.951,25.030 164.390,25.304 165.490 C 25.577 166.589,25.998 168.208,26.239 169.087 C 26.480 169.967,26.786 171.166,26.919 171.752 C 27.052 172.338,27.477 174.017,27.864 175.483 C 28.251 176.949,28.727 178.853,28.923 179.715 C 29.118 180.577,29.390 181.596,29.527 181.980 C 29.663 182.364,30.046 183.877,30.377 185.343 C 31.426 189.994,31.299 189.891,37.652 191.219 C 38.646 191.427,39.688 191.719,39.966 191.868 C 40.244 192.017,40.809 192.139,41.222 192.140 C 41.634 192.141,42.291 192.308,42.681 192.512 C 43.071 192.715,44.000 192.965,44.746 193.068 C 45.492 193.171,46.161 193.349,46.232 193.465 C 46.304 193.581,46.934 193.759,47.632 193.860 C 48.330 193.961,49.440 194.206,50.100 194.405 C 50.759 194.604,51.839 194.901,52.498 195.066 C 53.158 195.230,54.417 195.547,55.296 195.770 C 56.176 195.993,57.660 196.351,58.595 196.565 C 59.530 196.778,60.511 197.069,60.776 197.211 C 61.041 197.352,61.485 197.468,61.763 197.468 C 62.041 197.468,63.038 197.692,63.979 197.966 C 65.813 198.500,67.479 198.935,69.820 199.492 C 70.626 199.684,71.708 199.948,72.224 200.078 C 73.636 200.436,73.571 200.487,80.837 193.268 C 86.267 187.873,87.712 186.572,88.110 186.722 C 88.384 186.825,91.586 189.884,95.227 193.521 L 101.847 200.133 103.111 200.133 C 103.806 200.133,104.464 200.043,104.574 199.933 C 104.683 199.823,105.453 199.599,106.284 199.435 C 108.467 199.004,111.191 198.288,111.686 198.015 C 111.921 197.885,112.701 197.694,113.419 197.590 C 114.136 197.486,114.918 197.300,115.156 197.177 C 115.556 196.970,117.557 196.476,120.453 195.869 C 121.113 195.731,122.312 195.424,123.118 195.186 C 123.924 194.948,125.123 194.594,125.783 194.399 C 126.442 194.203,127.569 193.965,128.287 193.868 C 129.005 193.772,129.784 193.587,130.019 193.457 C 130.464 193.212,133.085 192.513,135.047 192.116 C 135.672 191.990,136.392 191.780,136.646 191.649 C 136.900 191.518,137.730 191.331,138.491 191.235 C 139.251 191.138,140.210 190.883,140.622 190.668 C 141.035 190.452,141.714 190.276,142.131 190.275 C 143.382 190.272,144.418 189.480,144.741 188.279 C 144.900 187.690,145.133 186.909,145.260 186.542 C 145.387 186.176,145.605 185.396,145.746 184.810 C 145.887 184.224,146.367 182.305,146.814 180.546 C 147.260 178.787,147.628 177.152,147.630 176.913 C 147.633 176.673,147.814 176.133,148.033 175.713 C 148.252 175.294,148.432 174.612,148.433 174.200 C 148.434 173.787,148.555 173.225,148.702 172.950 C 148.849 172.675,149.142 171.694,149.354 170.769 C 149.952 168.155,150.857 164.694,151.500 162.558 C 151.698 161.899,151.935 160.879,152.025 160.293 C 152.181 159.278,152.576 157.742,153.360 155.097 C 153.555 154.437,153.797 153.478,153.897 152.965 C 153.997 152.452,154.248 151.518,154.455 150.890 C 154.661 150.262,154.830 149.122,154.830 148.356 L 154.830 146.965 148.035 140.173 C 144.297 136.438,141.239 133.295,141.239 133.190 C 141.239 133.084,144.297 129.944,148.035 126.211 L 154.830 119.424 154.824 118.140 C 154.820 117.433,154.706 116.436,154.569 115.923 C 154.433 115.410,154.140 114.330,153.920 113.524 C 153.699 112.718,153.384 111.519,153.220 110.859 C 153.056 110.200,152.763 109.061,152.569 108.328 C 151.777 105.346,151.113 102.683,150.957 101.868 C 150.866 101.394,150.664 100.926,150.507 100.829 C 150.313 100.710,150.288 100.900,150.429 101.426 C 150.543 101.851,150.726 102.618,150.836 103.131 C 150.946 103.644,151.583 106.163,152.252 108.728 C 152.921 111.292,153.715 114.340,154.016 115.499 C 154.930 119.019,155.386 118.260,147.768 125.893 C 143.987 129.681,140.973 132.911,140.973 133.174 C 140.973 133.438,143.981 136.655,147.768 140.440 C 155.176 147.843,155.115 147.754,154.277 149.949 C 154.120 150.362,153.893 151.179,153.772 151.765 C 153.652 152.352,153.313 153.731,153.020 154.830 C 152.026 158.556,148.385 172.813,148.187 173.751 C 148.079 174.264,147.854 175.103,147.687 175.616 C 147.343 176.673,145.076 185.524,144.689 187.321 C 144.278 189.234,143.816 189.559,140.306 190.402 C 136.135 191.404,132.194 192.393,130.180 192.943 C 129.007 193.263,127.388 193.684,126.582 193.878 C 125.776 194.073,122.718 194.853,119.787 195.612 C 116.855 196.371,113.797 197.151,112.991 197.344 C 112.185 197.537,109.847 198.142,107.795 198.689 C 101.737 200.302,103.253 200.984,95.405 193.110 C 91.677 189.369,88.387 186.245,88.095 186.169 C 87.676 186.059,86.088 187.498,80.613 192.948 C 76.790 196.753,73.459 199.867,73.210 199.867 C 72.962 199.867,71.587 199.554,70.157 199.172 C 68.726 198.790,67.037 198.372,66.405 198.244 C 65.772 198.116,65.150 197.947,65.023 197.868 C 64.896 197.790,64.275 197.620,63.642 197.491 C 63.009 197.363,61.532 196.997,60.360 196.680 C 59.187 196.362,57.268 195.866,56.096 195.577 C 52.205 194.618,51.074 194.330,45.703 192.932 C 42.771 192.169,39.714 191.389,38.907 191.199 C 31.560 189.466,31.808 189.628,30.901 185.965 C 30.598 184.744,30.169 183.025,29.946 182.145 C 29.723 181.266,29.381 179.887,29.186 179.081 C 28.992 178.274,28.327 175.696,27.710 173.351 C 27.093 171.006,26.496 168.668,26.384 168.155 C 26.174 167.192,24.451 160.522,23.322 156.296 C 21.618 149.925,21.242 148.158,21.479 147.630 C 21.611 147.336,24.747 144.048,28.448 140.325 C 32.149 136.603,35.177 133.428,35.177 133.271 C 35.177 133.114,32.059 129.871,28.248 126.065 C 20.744 118.569,21.062 119.036,21.701 116.456 C 22.346 113.850,24.799 104.355,25.040 103.531 C 25.288 102.686,25.910 100.275,27.066 95.670 C 27.453 94.131,28.188 91.252,28.699 89.274 C 29.211 87.295,29.782 85.017,29.970 84.211 C 31.728 76.638,31.534 76.841,38.374 75.417 C 38.887 75.310,41.226 74.713,43.571 74.089 C 45.916 73.465,48.494 72.798,49.300 72.606 C 50.107 72.414,51.486 72.064,52.365 71.827 C 53.245 71.590,54.923 71.159,56.096 70.870 C 59.067 70.135,60.603 69.743,64.890 68.625 C 70.889 67.059,71.763 66.848,72.839 66.701 L 73.859 66.562 80.635 73.321 C 84.419 77.095,87.664 80.120,87.984 80.170 C 88.429 80.241,90.076 78.742,95.410 73.410 L 102.265 66.560 103.298 66.695 C 103.866 66.769,105.290 67.095,106.462 67.420 C 107.635 67.745,109.014 68.106,109.527 68.222 C 111.999 68.781,114.242 69.360,114.724 69.564 C 115.017 69.688,115.856 69.925,116.589 70.092 C 118.829 70.600,120.754 71.078,122.985 71.681 C 124.157 71.998,125.776 72.414,126.582 72.605 C 135.059 74.617,143.318 76.880,143.803 77.325 C 144.304 77.785,144.790 79.217,145.504 82.345 C 145.929 84.207,147.409 89.969,147.764 91.139 C 147.963 91.799,148.586 94.188,149.147 96.449 C 149.789 99.037,150.199 100.281,150.255 99.808 C 150.303 99.395,150.162 98.564,149.941 97.963 C 149.721 97.361,149.458 96.341,149.357 95.697 C 149.256 95.052,149.007 94.127,148.804 93.640 C 148.601 93.153,148.434 92.482,148.433 92.147 C 148.432 91.813,148.268 91.227,148.069 90.845 C 147.870 90.464,147.623 89.564,147.520 88.847 C 147.417 88.129,146.994 86.342,146.580 84.877 C 146.165 83.411,145.742 81.792,145.639 81.279 C 144.928 77.746,143.950 76.241,142.354 76.225 C 141.868 76.220,141.209 76.075,140.889 75.903 C 140.568 75.731,139.647 75.446,138.841 75.269 C 136.301 74.712,133.778 74.073,130.513 73.160 C 129.744 72.944,128.694 72.701,128.181 72.618 C 127.305 72.477,125.517 72.005,123.384 71.350 C 122.489 71.075,121.045 70.722,118.188 70.078 C 116.942 69.798,115.897 69.523,112.592 68.606 C 109.852 67.846,107.226 67.204,106.131 67.026 C 105.508 66.925,104.932 66.733,104.849 66.599 C 104.766 66.465,104.083 66.356,103.329 66.356 L 101.960 66.356 95.379 72.925 C 91.759 76.538,88.590 79.610,88.337 79.752 C 87.953 79.967,86.728 78.863,81.044 73.183 L 74.213 66.356 72.861 66.356 C 72.117 66.356,71.434 66.429,71.345 66.519 M67.688 80.790 C 66.589 81.067,65.030 81.476,64.224 81.699 C 61.049 82.577,57.041 83.590,52.765 84.595 C 51.134 84.978,49.160 85.750,49.326 85.939 C 49.385 86.007,53.136 89.781,57.660 94.326 L 65.886 102.589 66.587 102.074 C 69.284 100.092,79.163 89.617,78.923 88.995 C 78.503 87.911,70.377 80.105,69.820 80.252 C 69.747 80.271,68.787 80.513,67.688 80.790 M101.503 84.389 C 99.178 86.686,97.201 88.800,97.110 89.088 C 96.923 89.677,109.296 102.332,110.060 102.332 C 110.281 102.332,114.111 98.682,118.570 94.222 C 127.066 85.722,127.153 85.607,125.442 85.192 C 125.116 85.113,124.131 84.874,123.251 84.660 C 122.372 84.447,119.973 83.831,117.921 83.291 C 113.546 82.140,111.885 81.720,109.527 81.170 C 108.574 80.947,107.376 80.641,106.864 80.489 C 106.352 80.337,105.887 80.213,105.832 80.213 C 105.776 80.213,103.828 82.092,101.503 84.389 M74.801 85.118 C 76.899 87.215,78.612 89.098,78.610 89.302 C 78.606 89.615,67.612 100.745,66.328 101.736 C 65.960 102.020,52.492 89.150,50.148 86.275 C 49.752 85.789,50.010 85.684,53.964 84.714 C 55.137 84.427,56.815 84.007,57.695 83.782 C 58.574 83.556,59.953 83.213,60.759 83.020 C 61.566 82.827,62.426 82.586,62.672 82.486 C 63.131 82.298,65.259 81.783,68.088 81.176 C 70.314 80.698,70.477 80.793,74.801 85.118 M108.594 81.332 C 109.181 81.475,110.440 81.763,111.392 81.973 C 112.345 82.182,113.364 82.465,113.658 82.601 C 113.951 82.737,114.730 82.928,115.390 83.026 C 116.049 83.125,116.709 83.301,116.855 83.418 C 117.002 83.535,117.722 83.746,118.454 83.888 C 121.364 84.449,126.049 85.771,126.049 86.030 C 126.049 86.403,110.442 101.799,110.064 101.799 C 109.529 101.799,97.535 89.793,97.535 89.258 C 97.535 89.027,99.379 87.017,101.634 84.792 C 106.178 80.307,105.587 80.601,108.594 81.332 M40.001 95.736 C 39.847 96.213,39.067 99.181,38.269 102.332 C 37.471 105.483,36.517 109.201,36.149 110.593 C 35.781 111.985,35.396 113.707,35.294 114.419 L 35.107 115.714 39.469 120.082 C 41.868 122.485,43.947 124.450,44.089 124.450 C 44.568 124.450,57.029 111.813,57.029 111.327 C 57.029 110.757,41.235 94.870,40.668 94.870 C 40.455 94.870,40.155 95.260,40.001 95.736 M126.954 102.686 C 122.688 106.963,119.122 110.703,119.028 110.998 C 118.858 111.534,130.925 123.953,131.892 124.237 C 132.269 124.347,139.728 117.117,140.583 115.811 C 140.978 115.208,140.977 115.024,140.563 113.474 C 140.315 112.549,140.020 111.372,139.907 110.859 C 139.793 110.346,139.198 108.008,138.583 105.663 C 137.968 103.318,137.119 100.046,136.697 98.392 C 135.825 94.973,135.776 94.863,135.161 94.890 C 134.913 94.901,131.220 98.409,126.954 102.686 M135.874 96.709 C 136.040 97.207,136.176 97.848,136.176 98.134 C 136.176 98.420,136.339 99.032,136.539 99.493 C 136.739 99.955,137.026 100.933,137.177 101.666 C 137.570 103.578,139.103 109.563,139.360 110.193 C 139.638 110.874,140.448 114.585,140.443 115.159 C 140.439 115.729,132.515 123.651,131.950 123.651 C 131.434 123.651,119.387 111.688,119.387 111.176 C 119.387 110.981,122.895 107.308,127.182 103.014 C 135.426 94.757,135.264 94.875,135.874 96.709 M48.569 102.937 C 52.709 107.081,56.260 110.678,56.461 110.931 C 56.949 111.545,44.639 124.055,43.847 123.751 C 43.592 123.653,41.631 121.821,39.490 119.681 L 35.597 115.789 35.642 114.542 C 35.667 113.856,35.872 112.852,36.098 112.311 C 36.324 111.770,36.509 111.099,36.509 110.820 C 36.509 110.541,36.749 109.631,37.042 108.797 C 37.335 107.963,37.575 106.992,37.575 106.641 C 37.575 106.289,37.755 105.415,37.975 104.699 C 38.950 101.522,39.146 100.803,39.309 99.800 C 39.405 99.214,39.653 98.282,39.861 97.729 C 40.070 97.177,40.240 96.427,40.240 96.064 C 40.240 94.757,41.130 95.492,48.569 102.937 M81.200 104.687 C 77.726 108.180,74.883 111.149,74.883 111.284 C 74.883 111.609,87.739 124.450,88.064 124.450 C 88.537 124.450,100.999 111.811,100.999 111.331 C 100.999 110.629,88.774 98.334,88.076 98.334 C 87.701 98.334,85.442 100.421,81.200 104.687 M94.260 104.530 C 97.551 107.791,100.363 110.679,100.508 110.946 C 100.790 111.464,89.229 123.461,88.184 123.734 C 87.494 123.915,75.342 111.780,75.551 111.121 C 75.721 110.586,87.678 98.601,88.042 98.601 C 88.171 98.601,90.969 101.269,94.260 104.530 M177.709 108.091 C 177.467 108.163,177.199 108.486,177.113 108.808 C 176.836 109.842,176.928 157.673,177.209 158.410 L 177.468 159.094 183.338 159.094 C 191.056 159.094,190.273 160.026,190.273 150.838 L 190.273 143.648 190.873 143.526 C 191.203 143.459,193.451 143.331,195.869 143.242 C 200.183 143.081,200.842 142.997,203.927 142.211 C 211.922 140.175,216.703 131.623,215.180 122.085 C 214.808 119.754,214.468 118.654,213.646 117.122 C 213.488 116.829,213.190 116.253,212.983 115.843 C 211.369 112.647,207.440 110.005,202.345 108.690 C 200.332 108.170,179.153 107.655,177.709 108.091 M223.318 108.273 L 222.652 108.610 222.580 133.386 L 222.509 158.161 223.076 158.628 C 223.749 159.181,249.505 159.360,250.517 158.818 C 251.002 158.559,251.033 158.205,251.033 152.865 L 251.033 147.187 250.354 146.878 C 249.898 146.671,247.543 146.569,243.187 146.569 C 237.517 146.569,236.679 146.516,236.538 146.147 C 236.449 145.916,236.376 137.353,236.376 127.120 L 236.376 108.513 235.537 108.221 C 234.311 107.793,224.180 107.837,223.318 108.273 M275.186 108.480 C 274.800 108.784,274.480 109.174,274.475 109.346 C 274.470 109.519,274.234 110.140,273.951 110.726 C 273.668 111.312,273.428 111.972,273.418 112.192 C 273.409 112.412,273.225 112.824,273.010 113.109 C 272.794 113.393,272.618 113.790,272.618 113.990 C 272.618 114.377,271.786 116.389,271.142 117.563 C 270.928 117.952,270.753 118.514,270.753 118.813 C 270.753 119.111,270.642 119.424,270.506 119.508 C 270.370 119.592,270.122 120.109,269.954 120.657 C 269.644 121.672,269.584 121.826,268.688 123.917 C 268.406 124.577,267.903 125.836,267.570 126.716 C 267.238 127.595,266.756 128.794,266.500 129.380 C 266.244 129.967,265.815 131.046,265.547 131.779 C 265.279 132.512,264.901 133.348,264.708 133.637 C 264.515 133.926,264.357 134.409,264.357 134.710 C 264.357 135.011,264.203 135.494,264.014 135.783 C 263.826 136.073,263.400 137.029,263.069 137.908 C 262.737 138.787,262.292 139.846,262.079 140.261 C 261.866 140.676,261.688 141.156,261.683 141.327 C 261.678 141.499,261.442 142.119,261.159 142.705 C 260.876 143.291,260.640 143.911,260.635 144.082 C 260.630 144.254,260.446 144.763,260.227 145.215 C 260.007 145.666,259.647 146.405,259.427 146.857 C 259.207 147.309,259.023 147.818,259.018 147.990 C 259.013 148.161,258.778 148.781,258.494 149.367 C 258.211 149.953,257.975 150.573,257.970 150.745 C 257.965 150.916,257.793 151.396,257.587 151.811 C 256.599 153.801,256.096 155.070,256.096 155.570 C 256.096 155.871,255.973 156.159,255.823 156.209 C 255.673 156.259,255.478 156.748,255.389 157.295 C 255.097 159.094,255.098 159.094,262.403 159.094 L 268.912 159.094 269.566 158.440 C 269.926 158.080,270.220 157.633,270.220 157.446 C 270.220 157.096,270.986 155.035,271.860 153.031 L 272.354 151.899 280.614 151.899 C 286.439 151.899,288.874 151.985,288.874 152.192 C 288.874 152.353,289.046 152.862,289.257 153.324 C 289.467 153.786,289.760 154.584,289.907 155.097 C 290.469 157.059,291.054 158.404,291.488 158.734 C 292.199 159.275,304.943 159.240,305.394 158.697 C 305.927 158.055,305.022 154.944,303.391 151.811 C 303.175 151.396,302.998 150.885,302.998 150.677 C 302.998 150.468,302.758 149.850,302.465 149.303 C 302.172 148.757,301.932 148.158,301.932 147.973 C 301.932 147.788,301.580 146.887,301.150 145.970 C 300.720 145.054,300.287 143.973,300.188 143.568 C 300.089 143.164,299.901 142.767,299.771 142.687 C 299.640 142.606,299.534 142.333,299.534 142.079 C 299.534 141.826,299.294 141.148,299.001 140.573 C 298.708 139.998,298.468 139.426,298.468 139.303 C 298.468 139.179,298.249 138.575,297.982 137.960 C 297.715 137.345,297.285 136.302,297.028 135.643 C 296.770 134.983,296.390 134.104,296.181 133.689 C 295.973 133.274,295.802 132.795,295.801 132.623 C 295.800 132.452,295.645 132.012,295.457 131.646 C 295.268 131.279,294.777 130.049,294.365 128.913 C 293.953 127.776,293.508 126.780,293.377 126.699 C 293.245 126.617,293.134 126.348,293.129 126.100 C 293.124 125.852,292.888 125.170,292.605 124.584 C 292.322 123.997,292.086 123.416,292.081 123.291 C 292.076 123.167,291.899 122.687,291.689 122.225 C 291.478 121.764,290.636 119.647,289.817 117.522 C 288.999 115.396,288.152 113.318,287.936 112.903 C 287.719 112.488,287.542 112.032,287.542 111.889 C 287.542 111.746,287.319 111.127,287.048 110.512 C 286.776 109.897,286.480 109.182,286.389 108.923 C 285.974 107.746,276.592 107.375,275.186 108.480 M312.325 108.113 C 311.244 108.500,311.259 108.125,311.259 133.654 C 311.259 157.107,311.281 158.232,311.746 158.653 C 312.170 159.036,313.027 159.094,318.269 159.094 L 324.305 159.094 324.715 158.468 C 325.428 157.380,325.187 108.833,324.466 108.306 C 323.948 107.927,313.318 107.758,312.325 108.113 M335.500 108.339 C 334.893 109.071,334.775 157.547,335.378 158.468 L 335.788 159.094 346.298 159.094 C 356.684 159.094,361.748 158.753,362.545 158.001 C 362.684 157.869,362.999 157.761,363.246 157.761 C 363.830 157.761,366.396 156.581,368.382 155.398 C 370.984 153.848,374.469 150.096,375.964 147.235 C 376.887 145.470,377.614 143.696,377.624 143.186 C 377.630 142.921,377.805 142.405,378.015 142.039 C 378.224 141.672,378.400 140.944,378.405 140.421 C 378.410 139.898,378.601 138.844,378.828 138.078 C 379.556 135.625,379.149 128.478,378.104 125.383 C 377.956 124.943,377.731 124.162,377.604 123.646 C 377.357 122.640,376.035 119.987,374.816 118.049 C 374.177 117.034,370.514 113.204,369.326 112.309 C 367.531 110.956,364.278 109.644,360.027 108.559 C 357.266 107.854,336.060 107.664,335.500 108.339 M201.466 108.978 C 210.625 110.840,214.852 116.056,214.869 125.516 C 214.890 137.120,208.829 142.486,195.114 143.003 C 189.157 143.228,189.740 142.339,189.740 151.197 C 189.740 156.072,189.652 158.009,189.420 158.241 C 189.192 158.470,187.496 158.561,183.478 158.561 C 179.460 158.561,177.763 158.470,177.535 158.241 C 177.196 157.903,177.049 110.306,177.383 109.061 L 177.544 108.461 188.239 108.462 C 197.755 108.463,199.213 108.520,201.466 108.978 M235.849 109.145 C 236.009 109.565,236.109 116.889,236.109 128.145 C 236.109 142.037,236.187 146.540,236.429 146.782 C 236.661 147.014,238.591 147.102,243.438 147.102 C 248.285 147.102,250.215 147.190,250.446 147.422 C 250.986 147.961,250.891 158.189,250.345 158.399 C 249.583 158.691,223.856 158.583,223.300 158.285 C 222.716 157.972,222.470 110.657,223.045 109.145 L 223.305 108.461 229.447 108.461 L 235.589 108.461 235.849 109.145 M285.742 108.927 C 285.970 109.184,286.475 110.173,286.866 111.126 C 287.256 112.079,287.747 113.236,287.958 113.698 C 288.169 114.160,288.341 114.722,288.341 114.948 C 288.341 115.174,288.445 115.422,288.571 115.500 C 288.698 115.579,288.954 116.188,289.141 116.855 C 289.327 117.523,289.584 118.132,289.710 118.210 C 289.837 118.289,289.940 118.537,289.940 118.763 C 289.940 118.989,290.112 119.551,290.323 120.013 C 290.534 120.475,291.019 121.632,291.401 122.585 C 291.783 123.538,292.207 124.557,292.342 124.850 C 292.477 125.143,293.498 127.722,294.610 130.580 C 295.721 133.438,297.050 136.795,297.563 138.041 C 298.076 139.287,298.678 140.786,298.902 141.372 C 299.126 141.959,299.480 142.778,299.688 143.193 C 299.896 143.608,300.067 144.087,300.068 144.259 C 300.069 144.430,300.226 144.870,300.417 145.237 C 300.608 145.603,301.104 146.836,301.520 147.976 C 301.936 149.117,302.378 150.113,302.504 150.190 C 302.629 150.268,302.732 150.534,302.733 150.782 C 302.734 151.030,302.890 151.532,303.079 151.899 C 303.268 152.265,303.705 153.344,304.049 154.297 C 304.393 155.250,304.850 156.418,305.065 156.893 C 305.822 158.569,305.855 158.561,298.517 158.561 C 290.846 158.561,291.440 158.778,290.478 155.630 C 290.143 154.530,289.623 153.121,289.324 152.498 L 288.780 151.366 280.486 151.366 L 272.191 151.366 271.605 152.572 C 271.283 153.236,271.019 153.925,271.018 154.104 C 271.017 154.284,270.848 154.752,270.643 155.145 C 270.438 155.538,270.193 156.212,270.098 156.642 C 269.681 158.540,269.597 158.561,262.340 158.561 C 255.282 158.561,255.100 158.522,255.778 157.144 C 256.085 156.520,266.605 130.273,267.173 128.714 C 267.360 128.201,268.012 126.582,268.621 125.117 C 269.231 123.651,269.828 122.152,269.947 121.785 C 270.066 121.419,270.666 119.920,271.279 118.454 C 271.893 116.989,272.494 115.490,272.614 115.123 C 273.091 113.671,274.763 109.755,275.175 109.127 L 275.611 108.461 280.469 108.461 C 284.760 108.461,285.375 108.515,285.742 108.927 M324.450 133.511 L 324.450 158.428 318.355 158.499 C 314.082 158.550,312.149 158.480,311.892 158.267 C 311.424 157.878,311.338 109.843,311.804 108.972 C 312.070 108.475,312.366 108.455,318.266 108.523 L 324.450 108.594 324.450 133.511 M359.360 108.890 C 371.630 111.092,378.652 120.024,378.676 133.460 C 378.697 145.883,372.808 154.496,362.025 157.812 C 359.763 158.507,336.402 158.925,335.629 158.283 C 335.231 157.952,335.020 110.519,335.411 109.061 L 335.572 108.461 346.267 108.460 C 354.947 108.460,357.414 108.541,359.360 108.890 M59.161 126.721 L 52.646 133.255 59.166 139.779 C 62.752 143.367,65.863 146.302,66.081 146.302 C 66.595 146.302,79.147 133.755,79.147 133.241 C 79.147 132.767,66.489 120.187,66.012 120.187 C 65.827 120.187,62.744 123.127,59.161 126.721 M103.198 126.417 C 99.399 130.221,97.002 132.819,97.002 133.134 C 97.002 133.703,109.437 146.302,109.998 146.302 C 110.619 146.302,123.065 133.501,122.934 132.997 C 122.736 132.241,110.448 120.185,109.890 120.200 C 109.609 120.208,106.713 122.898,103.198 126.417 M189.902 120.608 C 189.459 121.762,189.734 130.491,190.228 130.938 C 191.107 131.734,197.819 131.363,199.666 130.417 C 203.839 128.279,203.360 122.398,198.875 120.720 C 196.959 120.003,190.167 119.919,189.902 120.608 M348.479 120.364 C 348.134 120.709,348.273 146.434,348.621 146.782 C 349.089 147.250,354.042 147.187,356.486 146.682 C 362.972 145.342,365.470 141.707,365.446 133.644 C 365.423 126.402,363.327 122.651,358.278 120.818 C 356.550 120.191,349.002 119.841,348.479 120.364 M72.851 127.207 L 78.948 133.295 73.118 139.142 C 69.912 142.358,66.970 145.225,66.580 145.513 L 65.872 146.037 59.574 139.740 C 56.110 136.276,53.311 133.339,53.354 133.213 C 53.689 132.223,65.940 120.483,66.325 120.784 C 66.561 120.968,69.498 123.859,72.851 127.207 M116.389 126.679 C 119.797 130.103,122.585 133.028,122.585 133.178 C 122.585 133.530,110.440 145.612,109.987 145.711 C 109.658 145.783,97.509 133.834,97.313 133.245 C 97.209 132.933,109.488 120.496,109.927 120.469 C 110.073 120.460,112.981 123.254,116.389 126.679 M198.164 120.919 C 200.596 121.667,201.741 122.874,201.920 124.878 C 202.314 129.277,200.587 130.623,194.337 130.787 L 190.273 130.894 190.273 125.673 L 190.273 120.453 193.460 120.453 C 195.741 120.453,197.079 120.586,198.164 120.919 M357.570 120.967 C 360.777 122.048,362.298 123.337,363.790 126.238 C 365.653 129.860,365.765 137.452,364.005 140.773 C 363.425 141.867,363.072 142.439,362.782 142.756 C 362.612 142.943,362.432 143.188,362.382 143.302 C 361.463 145.402,353.088 147.427,349.276 146.470 L 348.568 146.292 348.568 133.373 L 348.568 120.453 352.307 120.453 C 355.295 120.453,356.352 120.556,357.570 120.967 M279.880 127.159 C 278.658 130.704,276.083 139.431,276.083 140.024 C 276.083 140.857,276.603 140.965,280.613 140.965 C 285.915 140.965,285.690 141.356,283.843 135.376 C 283.232 133.398,282.487 130.939,282.187 129.913 C 281.887 128.887,281.376 127.468,281.052 126.759 L 280.461 125.470 279.880 127.159 M281.126 127.981 C 281.443 128.897,281.827 130.007,281.979 130.446 C 282.131 130.886,282.415 131.845,282.612 132.578 C 283.509 135.930,283.876 137.128,284.082 137.378 C 284.204 137.527,284.343 138.246,284.390 138.977 L 284.477 140.306 280.718 140.380 C 276.034 140.472,276.105 140.528,277.037 137.483 C 277.414 136.251,277.893 134.849,278.102 134.368 C 278.310 133.887,278.481 133.261,278.481 132.978 C 278.481 132.695,278.651 132.069,278.858 131.588 C 279.065 131.107,279.515 129.724,279.857 128.516 C 280.598 125.899,280.428 125.971,281.126 127.981 M39.678 146.192 C 34.528 151.289,34.817 150.634,35.875 154.786 C 37.048 159.389,39.929 170.548,40.135 171.286 C 40.227 171.616,40.436 171.885,40.599 171.885 C 41.087 171.885,57.029 155.792,57.029 155.300 C 57.029 154.930,46.687 144.281,44.561 142.461 L 43.964 141.950 39.678 146.192 M81.195 148.429 C 77.724 151.944,74.883 154.973,74.883 155.160 C 74.883 155.745,87.551 168.219,88.039 168.115 C 88.691 167.976,100.999 155.663,100.999 155.149 C 100.999 154.593,88.473 142.039,87.918 142.039 C 87.692 142.039,84.667 144.914,81.195 148.429 M125.207 148.434 C 121.713 151.951,118.854 154.974,118.854 155.152 C 118.854 155.576,134.866 171.619,135.288 171.619 C 135.717 171.619,135.959 171.193,136.184 170.041 C 136.286 169.516,136.695 167.888,137.093 166.422 C 138.985 159.462,140.966 151.232,140.843 150.845 C 140.648 150.228,132.348 142.039,131.918 142.039 C 131.721 142.039,128.701 144.916,125.207 148.434 M94.698 149.044 C 98.047 152.391,100.746 155.177,100.694 155.234 C 99.448 156.599,88.485 167.466,88.192 167.626 C 87.717 167.885,75.416 155.903,75.416 155.182 C 75.416 154.409,87.759 142.327,88.208 142.661 C 88.428 142.824,91.348 145.696,94.698 149.044 M50.841 149.188 C 56.056 154.400,56.752 155.193,56.456 155.583 C 55.390 156.989,40.737 171.362,40.511 171.222 C 40.362 171.130,40.236 170.672,40.230 170.204 C 40.225 169.736,40.050 169.054,39.840 168.688 C 39.631 168.321,39.457 167.722,39.454 167.355 C 39.451 166.989,39.198 165.849,38.892 164.823 C 38.166 162.386,37.686 160.603,37.317 158.961 C 36.466 155.179,36.224 154.226,36.013 153.815 C 35.886 153.567,35.701 152.834,35.602 152.185 L 35.422 151.006 39.683 146.745 C 43.562 142.866,43.986 142.518,44.416 142.861 C 44.676 143.068,47.567 145.915,50.841 149.188 M136.406 146.699 C 140.286 150.601,140.493 150.861,140.368 151.690 C 140.196 152.823,139.569 155.476,138.836 158.161 C 138.516 159.334,138.095 161.014,137.899 161.896 C 137.703 162.778,137.415 163.835,137.259 164.245 C 137.103 164.656,136.975 165.270,136.975 165.610 C 136.975 165.950,136.796 166.572,136.577 166.992 C 136.358 167.411,136.169 168.055,136.157 168.421 C 136.125 169.390,135.511 170.953,135.162 170.953 C 134.691 170.953,119.387 155.583,119.392 155.115 C 119.397 154.600,131.447 142.570,131.950 142.577 C 132.149 142.579,134.154 144.434,136.406 146.699 M57.539 172.094 C 52.974 176.643,49.317 180.491,49.413 180.645 C 49.598 180.945,50.670 181.309,53.031 181.874 C 53.837 182.067,55.456 182.487,56.629 182.807 C 57.801 183.128,59.420 183.547,60.227 183.738 C 61.033 183.930,63.371 184.518,65.423 185.045 C 67.475 185.571,69.457 186.004,69.828 186.006 C 70.487 186.009,78.614 178.294,78.994 177.304 C 79.117 176.984,68.871 166.400,66.428 164.323 L 65.839 163.823 57.539 172.094 M103.198 170.384 C 99.279 174.303,97.002 176.773,97.002 177.107 C 97.002 178.071,105.621 186.368,106.373 186.127 C 106.954 185.941,108.872 185.454,117.255 183.365 C 123.294 181.860,126.263 180.980,126.478 180.632 C 126.732 180.222,110.580 164.154,109.932 164.173 C 109.597 164.183,107.057 166.525,103.198 170.384 M72.700 171.008 C 77.531 175.810,78.607 177.009,78.406 177.369 C 78.269 177.612,76.438 179.536,74.337 181.644 C 70.083 185.911,69.860 186.017,67.098 185.095 C 66.470 184.886,65.476 184.637,64.890 184.542 C 64.304 184.447,63.510 184.251,63.126 184.106 C 62.477 183.860,61.290 183.565,57.961 182.821 C 57.229 182.657,56.424 182.411,56.174 182.273 C 55.924 182.135,55.205 181.950,54.575 181.862 C 53.521 181.714,51.522 181.167,50.233 180.674 C 49.774 180.498,50.824 179.349,57.770 172.421 C 64.980 165.228,65.887 164.410,66.293 164.731 C 66.542 164.928,69.426 167.753,72.700 171.008 M118.275 172.564 C 126.276 180.541,126.582 180.928,124.899 180.942 C 124.633 180.944,124.199 181.062,123.934 181.204 C 123.454 181.461,121.099 182.041,118.321 182.588 C 117.515 182.746,116.730 182.976,116.576 183.098 C 116.422 183.221,115.762 183.403,115.110 183.503 C 114.458 183.603,113.624 183.832,113.258 184.011 C 112.891 184.191,111.935 184.422,111.133 184.525 C 110.330 184.627,109.551 184.809,109.400 184.928 C 108.799 185.407,105.950 185.712,105.396 185.357 C 104.647 184.877,97.811 177.998,97.494 177.405 C 97.184 176.826,108.998 164.709,109.885 164.697 C 110.178 164.693,113.562 167.866,118.275 172.564 " stroke="none" fill="#a4a4a4" fill-rule="evenodd"></path><path id="path3" d="M76.616 69.554 C 78.076 71.019,79.330 72.219,79.404 72.219 C 79.477 72.219,78.342 71.019,76.882 69.554 C 75.422 68.088,74.167 66.889,74.094 66.889 C 74.021 66.889,75.155 68.088,76.616 69.554 M83.411 76.349 C 85.533 78.474,87.328 80.213,87.402 80.213 C 87.475 80.213,85.799 78.474,83.678 76.349 C 81.556 74.224,79.760 72.485,79.687 72.485 C 79.614 72.485,81.290 74.224,83.411 76.349 M51.421 88.274 C 52.526 89.451,52.765 89.663,52.765 89.463 C 52.765 89.420,52.195 88.850,51.499 88.197 L 50.233 87.009 51.421 88.274 M55.163 92.072 C 56.403 93.318,57.477 94.337,57.550 94.337 C 57.623 94.337,56.669 93.318,55.430 92.072 C 54.190 90.826,53.116 89.807,53.043 89.807 C 52.970 89.807,53.924 90.826,55.163 92.072 M102.065 95.003 C 104.774 97.715,107.050 99.933,107.123 99.933 C 107.196 99.933,105.040 97.715,102.332 95.003 C 99.623 92.292,97.347 90.073,97.274 90.073 C 97.201 90.073,99.357 92.292,102.065 95.003 M107.395 100.283 C 107.395 100.329,107.785 100.719,108.261 101.149 L 109.127 101.932 108.345 101.066 C 107.615 100.259,107.395 100.077,107.395 100.283 M311.591 133.545 C 311.529 156.528,311.553 157.984,311.992 158.328 C 312.405 158.652,312.420 158.645,312.127 158.269 C 311.869 157.938,311.780 152.425,311.726 133.485 L 311.656 109.127 311.591 133.545 M335.371 133.644 C 335.371 147.129,335.403 152.684,335.443 145.989 C 335.483 139.295,335.483 128.262,335.443 121.473 C 335.403 114.683,335.371 120.160,335.371 133.644 M222.848 133.695 C 222.813 147.061,222.875 158.052,222.985 158.120 C 223.166 158.232,223.164 141.244,222.981 118.188 C 222.942 113.351,222.882 120.329,222.848 133.695 M235.969 127.915 C 235.969 138.101,236.002 142.268,236.043 137.175 C 236.083 132.082,236.083 123.748,236.043 118.654 C 236.002 113.561,235.969 117.728,235.969 127.915 M120.187 113.075 C 120.187 113.121,120.576 113.510,121.053 113.941 L 121.919 114.724 121.136 113.857 C 120.406 113.050,120.187 112.869,120.187 113.075 M210.793 113.924 C 211.290 114.437,211.757 114.857,211.830 114.857 C 211.903 114.857,211.557 114.437,211.059 113.924 C 210.562 113.411,210.095 112.991,210.022 112.991 C 209.949 112.991,210.296 113.411,210.793 113.924 M78.081 114.940 C 78.081 114.986,78.471 115.376,78.947 115.806 L 79.813 116.589 79.031 115.723 C 78.301 114.916,78.081 114.734,78.081 114.940 M39.174 120.053 C 41.442 122.325,43.358 124.184,43.431 124.184 C 43.505 124.184,41.709 122.325,39.440 120.053 C 37.172 117.781,35.256 115.923,35.183 115.923 C 35.110 115.923,36.906 117.781,39.174 120.053 M84.077 120.986 C 85.978 122.891,87.594 124.450,87.667 124.450 C 87.740 124.450,86.245 122.891,84.344 120.986 C 82.443 119.081,80.827 117.522,80.754 117.522 C 80.681 117.522,82.176 119.081,84.077 120.986 M191.939 120.117 C 192.781 120.170,194.161 120.170,195.003 120.117 C 195.846 120.064,195.157 120.021,193.471 120.021 C 191.785 120.021,191.096 120.064,191.939 120.117 M350.633 120.117 C 351.549 120.169,353.048 120.169,353.964 120.117 C 354.880 120.065,354.131 120.023,352.298 120.023 C 350.466 120.023,349.717 120.065,350.633 120.117 M22.652 120.536 C 22.652 120.582,23.041 120.972,23.518 121.403 L 24.384 122.185 23.601 121.319 C 22.871 120.512,22.652 120.331,22.652 120.536 M57.678 127.981 L 56.895 128.847 57.761 128.065 C 58.238 127.634,58.628 127.245,58.628 127.199 C 58.628 126.993,58.408 127.174,57.678 127.981 M59.161 140.040 C 62.603 143.484,65.479 146.302,65.552 146.302 C 65.625 146.302,62.869 143.484,59.427 140.040 C 55.985 136.596,53.109 133.777,53.036 133.777 C 52.962 133.777,55.719 136.596,59.161 140.040 M101.133 138.041 C 103.327 140.240,105.183 142.039,105.256 142.039 C 105.330 142.039,103.594 140.240,101.399 138.041 C 99.204 135.843,97.348 134.044,97.275 134.044 C 97.202 134.044,98.938 135.843,101.133 138.041 M120.843 135.710 L 119.520 137.109 120.919 135.786 C 121.689 135.059,122.318 134.429,122.318 134.387 C 122.318 134.188,122.072 134.409,120.843 135.710 M143.371 136.259 C 143.371 136.305,143.761 136.695,144.237 137.125 L 145.103 137.908 144.321 137.042 C 143.591 136.235,143.371 136.053,143.371 136.259 M118.438 138.108 L 117.655 138.974 118.521 138.191 C 119.328 137.462,119.510 137.242,119.304 137.242 C 119.258 137.242,118.868 137.632,118.438 138.108 M147.890 140.773 C 148.544 141.469,149.113 142.039,149.156 142.039 C 149.356 142.039,149.145 141.799,147.968 140.695 L 146.702 139.507 147.890 140.773 M106.584 143.438 C 107.689 144.614,107.928 144.826,107.928 144.626 C 107.928 144.583,107.358 144.013,106.662 143.360 L 105.396 142.172 106.584 143.438 M42.222 143.438 L 41.439 144.304 42.305 143.521 C 43.112 142.792,43.294 142.572,43.088 142.572 C 43.042 142.572,42.652 142.961,42.222 143.438 M190.180 143.038 C 190.112 143.148,191.034 143.206,192.230 143.166 C 195.965 143.043,196.388 142.929,193.287 142.883 C 191.647 142.858,190.249 142.928,190.180 143.038 M151.765 144.704 C 152.636 145.583,153.408 146.302,153.481 146.302 C 153.554 146.302,152.902 145.583,152.032 144.704 C 151.162 143.824,150.390 143.105,150.316 143.105 C 150.243 143.105,150.895 143.824,151.765 144.704 M38.360 147.302 L 37.442 148.301 38.441 147.383 C 39.371 146.528,39.563 146.302,39.359 146.302 C 39.315 146.302,38.865 146.752,38.360 147.302 M276.682 151.299 C 278.844 151.343,282.382 151.343,284.544 151.299 C 286.706 151.254,284.937 151.217,280.613 151.217 C 276.289 151.217,274.520 151.254,276.682 151.299 M371.602 152.232 L 370.819 153.098 371.686 152.315 C 372.493 151.586,372.674 151.366,372.468 151.366 C 372.422 151.366,372.033 151.755,371.602 152.232 M80.879 161.759 C 84.101 164.983,86.798 167.622,86.871 167.622 C 86.944 167.622,84.368 164.983,81.146 161.759 C 77.924 158.534,75.228 155.896,75.154 155.896 C 75.081 155.896,77.657 158.534,80.879 161.759 M119.920 156.779 C 119.920 156.825,120.310 157.215,120.786 157.645 L 121.652 158.428 120.870 157.562 C 120.140 156.754,119.920 156.573,119.920 156.779 M94.987 161.559 L 94.204 162.425 95.070 161.642 C 95.877 160.913,96.059 160.693,95.853 160.693 C 95.807 160.693,95.417 161.083,94.987 161.559 M92.197 164.357 L 90.473 166.156 92.272 164.431 C 93.943 162.830,94.192 162.558,93.996 162.558 C 93.955 162.558,93.146 163.368,92.197 164.357 M89.259 167.288 L 88.341 168.288 89.340 167.369 C 90.271 166.515,90.462 166.289,90.259 166.289 C 90.214 166.289,89.765 166.739,89.259 167.288 M76.741 179.813 L 75.017 181.612 76.815 179.888 C 78.486 178.286,78.736 178.015,78.540 178.015 C 78.499 178.015,77.690 178.824,76.741 179.813 M73.551 182.945 C 72.904 183.604,72.434 184.144,72.507 184.144 C 72.581 184.144,73.170 183.604,73.817 182.945 C 74.465 182.285,74.934 181.746,74.861 181.746 C 74.788 181.746,74.198 182.285,73.551 182.945 M101.532 182.362 C 101.532 182.408,101.922 182.797,102.398 183.228 L 103.264 184.011 102.482 183.145 C 101.752 182.337,101.532 182.156,101.532 182.362 " stroke="none" fill="#8c8c8c" fill-rule="evenodd"></path><path id="path4" d="M72.155 66.774 C 72.012 66.918,68.919 67.767,66.889 68.220 C 65.347 68.563,62.577 69.275,61.159 69.692 C 60.426 69.907,57.908 70.557,55.563 71.136 C 53.218 71.715,49.860 72.561,48.101 73.016 C 46.342 73.471,42.280 74.506,39.074 75.317 C 31.495 77.233,31.688 77.112,31.047 80.346 C 30.885 81.164,30.340 83.301,29.689 85.676 C 29.488 86.409,29.030 88.208,28.671 89.674 C 28.312 91.139,27.517 94.257,26.904 96.602 C 26.292 98.947,25.632 101.526,25.438 102.332 C 25.244 103.138,24.665 105.416,24.151 107.395 C 22.447 113.958,21.322 118.451,21.321 118.705 C 21.320 118.842,24.437 122.087,28.248 125.916 C 32.059 129.745,35.177 133.051,35.177 133.263 C 35.177 133.475,32.291 136.526,28.763 140.042 C 25.236 143.559,22.117 146.756,21.832 147.147 L 21.314 147.858 22.219 151.544 C 22.716 153.571,23.624 157.149,24.236 159.494 C 26.382 167.713,28.039 174.159,28.244 175.083 C 28.609 176.736,30.124 182.641,30.500 183.877 C 30.700 184.537,31.083 185.964,31.350 187.048 C 31.940 189.445,32.277 189.625,38.907 191.070 C 40.359 191.386,47.360 193.208,50.633 194.121 C 51.439 194.346,53.538 194.882,55.296 195.313 C 58.492 196.095,67.016 198.267,70.995 199.313 C 72.155 199.617,73.229 199.867,73.382 199.867 C 73.536 199.867,76.787 196.749,80.608 192.938 C 84.429 189.127,87.726 186.009,87.936 186.009 C 88.146 186.009,91.459 189.143,95.299 192.972 C 101.732 199.388,102.339 199.924,103.039 199.792 C 103.456 199.713,104.757 199.388,105.929 199.068 C 107.102 198.748,108.721 198.327,109.527 198.131 C 112.330 197.450,114.203 196.971,116.322 196.394 C 117.495 196.075,118.961 195.711,119.581 195.584 C 120.733 195.350,122.744 194.821,125.117 194.130 C 125.849 193.917,127.468 193.495,128.714 193.192 C 143.550 189.585,144.029 189.421,144.431 187.819 C 144.588 187.190,144.880 186.076,145.081 185.343 C 145.827 182.609,146.309 180.738,146.957 178.065 C 147.323 176.554,147.688 175.213,147.767 175.085 C 147.846 174.957,148.014 174.335,148.139 173.702 C 148.364 172.571,151.158 161.613,153.291 153.498 C 155.000 146.994,155.707 148.621,147.650 140.519 C 143.831 136.678,140.706 133.386,140.706 133.202 C 140.706 133.018,143.824 129.742,147.635 125.921 C 152.486 121.057,154.564 118.799,154.564 118.389 C 154.564 118.067,154.152 116.271,153.650 114.398 C 152.448 109.920,149.529 98.596,149.097 96.736 C 148.910 95.929,148.497 94.310,148.181 93.138 C 147.865 91.965,147.437 90.286,147.231 89.407 C 146.062 84.418,144.163 77.693,143.830 77.360 C 143.618 77.148,142.319 76.692,140.943 76.347 C 139.567 76.002,135.743 75.051,132.445 74.234 C 129.147 73.416,125.849 72.570,125.117 72.354 C 124.384 72.137,122.765 71.712,121.519 71.408 C 120.273 71.105,118.654 70.687,117.921 70.480 C 117.189 70.273,116.173 70.025,115.665 69.928 C 115.157 69.831,114.557 69.663,114.333 69.554 C 114.108 69.445,112.785 69.088,111.392 68.760 C 108.772 68.143,107.080 67.708,104.640 67.022 C 103.858 66.802,102.997 66.622,102.727 66.622 C 102.441 66.622,99.435 69.417,95.535 73.306 C 88.916 79.909,88.315 80.468,87.824 80.476 C 87.687 80.478,84.442 77.362,80.613 73.551 C 73.795 66.765,72.890 66.040,72.155 66.774 M80.836 74.212 C 84.579 77.952,87.791 81.013,87.975 81.013 C 88.158 81.013,91.441 77.895,95.270 74.084 C 102.886 66.503,102.346 66.860,105.130 67.573 C 107.180 68.098,108.845 68.513,113.125 69.565 C 115.030 70.034,116.829 70.517,117.122 70.639 C 117.415 70.762,118.974 71.169,120.586 71.545 C 122.199 71.920,124.117 72.392,124.850 72.593 C 125.583 72.795,126.962 73.165,127.915 73.417 C 128.867 73.668,130.445 74.101,131.420 74.379 C 132.396 74.656,133.393 74.883,133.636 74.883 C 133.878 74.883,134.639 75.053,135.326 75.261 C 136.483 75.611,139.015 76.274,142.120 77.042 C 143.562 77.399,144.213 78.310,144.538 80.425 C 144.634 81.054,144.819 81.774,144.947 82.024 C 145.075 82.274,145.306 83.078,145.461 83.811 C 146.007 86.404,146.512 88.432,146.679 88.703 C 146.772 88.853,146.976 89.673,147.133 90.524 C 147.289 91.375,147.510 92.192,147.623 92.338 C 147.736 92.485,147.910 93.138,148.010 93.789 C 148.109 94.440,148.351 95.519,148.546 96.187 C 148.949 97.563,149.425 99.357,149.752 100.733 C 150.087 102.147,150.794 104.940,151.267 106.729 C 152.156 110.082,152.411 111.075,153.082 113.791 C 153.463 115.330,153.913 117.044,154.083 117.601 L 154.391 118.614 147.415 125.608 C 142.667 130.369,140.440 132.783,140.440 133.169 C 140.440 133.555,142.659 135.959,147.396 140.703 C 153.682 146.999,154.338 147.740,154.206 148.386 C 153.955 149.616,152.385 155.604,151.241 159.694 C 151.026 160.463,150.734 161.632,150.593 162.292 C 150.161 164.304,149.624 166.374,148.570 170.087 C 148.352 170.856,148.060 172.085,147.921 172.818 C 147.782 173.551,147.421 174.990,147.118 176.016 C 146.525 178.022,145.895 180.540,145.452 182.678 C 145.300 183.411,145.018 184.430,144.826 184.943 C 144.634 185.456,144.413 186.338,144.336 186.904 C 144.132 188.391,143.599 189.033,142.275 189.386 C 140.419 189.882,134.596 191.348,132.845 191.761 C 131.965 191.968,130.346 192.386,129.247 192.690 C 128.148 192.994,126.578 193.395,125.758 193.581 C 124.939 193.768,124.129 194.006,123.959 194.112 C 123.789 194.217,123.080 194.402,122.384 194.523 C 121.689 194.645,120.160 195.009,118.987 195.332 C 116.852 195.921,114.934 196.411,112.192 197.067 C 108.794 197.880,107.193 198.295,106.063 198.658 C 105.403 198.869,104.282 199.123,103.572 199.222 L 102.280 199.402 95.274 192.414 C 90.728 187.880,88.113 185.458,87.827 185.518 C 87.584 185.568,84.287 188.711,80.499 192.501 L 73.612 199.392 72.182 199.197 C 71.396 199.089,70.453 198.881,70.087 198.734 C 69.464 198.485,68.364 198.199,64.757 197.350 C 62.980 196.932,61.338 196.501,59.560 195.986 C 58.827 195.773,57.688 195.470,57.029 195.312 C 56.369 195.154,55.170 194.867,54.364 194.674 C 53.558 194.482,50.740 193.754,48.101 193.057 C 45.463 192.360,42.945 191.740,42.505 191.679 C 42.065 191.619,41.466 191.461,41.173 191.330 C 40.879 191.198,39.100 190.716,37.218 190.259 C 32.998 189.233,31.979 188.826,31.979 188.168 C 31.979 187.894,31.804 187.086,31.591 186.373 C 30.830 183.828,30.112 181.109,29.137 177.082 C 28.490 174.408,28.081 172.838,27.921 172.418 C 27.837 172.199,27.567 171.179,27.320 170.153 C 25.993 164.643,25.448 162.517,25.237 162.025 C 25.143 161.805,24.884 160.786,24.663 159.760 C 24.441 158.734,23.827 156.276,23.298 154.297 C 22.208 150.220,21.880 148.794,21.864 148.051 C 21.856 147.723,24.383 144.992,28.781 140.573 C 32.592 136.744,35.710 133.446,35.710 133.245 C 35.710 133.043,32.689 129.847,28.997 126.143 C 25.305 122.438,22.177 119.215,22.045 118.980 C 21.738 118.431,22.029 116.890,23.449 111.526 C 24.070 109.181,24.664 106.842,24.769 106.329 C 24.874 105.816,25.090 104.977,25.249 104.464 C 25.541 103.517,25.937 101.996,26.392 100.067 C 26.694 98.787,27.342 96.300,27.848 94.470 C 28.051 93.738,28.351 92.598,28.515 91.939 C 28.678 91.279,29.049 89.780,29.339 88.608 C 29.628 87.435,30.050 85.756,30.276 84.877 C 30.501 83.997,30.850 82.618,31.052 81.812 C 32.089 77.650,32.041 77.747,33.325 77.268 C 34.543 76.813,40.339 75.269,42.239 74.893 C 42.825 74.777,45.223 74.176,47.568 73.557 C 52.105 72.360,54.918 71.629,57.295 71.029 C 58.101 70.826,59.540 70.462,60.493 70.220 C 61.446 69.978,62.885 69.620,63.691 69.424 C 64.497 69.228,66.116 68.806,67.288 68.486 C 68.461 68.165,70.196 67.729,71.144 67.515 C 72.092 67.302,72.918 67.078,72.978 67.018 C 73.256 66.740,74.476 67.857,80.836 74.212 M66.889 80.504 C 65.789 80.784,64.290 81.186,63.558 81.397 C 61.755 81.917,60.116 82.347,58.361 82.760 C 54.700 83.621,53.647 83.897,52.947 84.177 C 52.535 84.342,51.893 84.477,51.522 84.477 C 50.643 84.477,49.118 85.206,48.921 85.721 C 48.720 86.244,65.275 102.865,65.997 102.865 C 66.807 102.865,79.414 90.089,79.414 89.268 C 79.414 88.759,78.379 87.568,75.071 84.273 C 70.152 79.372,70.574 79.566,66.889 80.504 M100.930 84.413 C 98.476 86.870,96.469 89.087,96.469 89.340 C 96.469 89.976,109.369 102.865,110.006 102.865 C 110.309 102.865,113.855 99.523,118.954 94.435 C 128.331 85.075,128.099 85.424,125.406 84.721 C 124.807 84.565,123.658 84.265,122.851 84.055 C 121.226 83.631,119.762 83.276,117.436 82.743 C 116.582 82.547,115.683 82.305,115.437 82.204 C 115.191 82.104,114.330 81.870,113.524 81.685 C 112.718 81.500,110.888 81.033,109.457 80.648 C 105.456 79.570,106.012 79.324,100.930 84.413 M74.820 84.547 C 77.200 86.930,79.147 89.070,79.147 89.303 C 79.147 89.706,67.117 101.901,66.230 102.397 C 65.783 102.647,49.300 86.596,49.300 85.912 C 49.300 85.548,50.395 85.102,52.498 84.609 C 54.254 84.198,63.703 81.763,66.889 80.901 C 70.497 79.925,69.956 79.676,74.820 84.547 M108.861 80.896 C 110.327 81.271,112.185 81.737,112.991 81.931 C 122.831 84.301,126.582 85.408,126.582 85.943 C 126.582 86.568,110.602 102.332,109.973 102.328 C 109.150 102.322,97.002 90.158,97.002 89.339 C 97.002 88.736,105.328 80.213,105.917 80.213 C 106.071 80.213,107.396 80.520,108.861 80.896 M39.678 95.336 C 39.380 96.033,39.025 97.181,38.891 97.889 C 38.757 98.596,38.586 99.273,38.513 99.393 C 38.439 99.512,38.188 100.432,37.956 101.437 C 37.155 104.911,36.831 106.204,36.235 108.328 C 35.533 110.825,34.920 113.507,34.723 114.942 C 34.576 116.017,42.310 124.429,43.803 124.820 C 44.692 125.053,57.703 111.991,57.477 111.093 C 57.300 110.394,41.065 94.071,40.545 94.071 C 40.367 94.071,39.977 94.640,39.678 95.336 M126.516 102.543 C 122.009 107.055,118.321 110.955,118.321 111.210 C 118.321 111.936,131.237 124.717,131.970 124.717 C 132.393 124.717,133.864 123.428,136.906 120.389 C 141.658 115.644,141.627 115.699,140.943 113.125 C 140.787 112.538,140.504 111.379,140.313 110.549 C 140.122 109.719,139.892 108.920,139.802 108.773 C 139.711 108.627,139.466 107.687,139.256 106.685 C 139.047 105.683,138.693 104.204,138.469 103.398 C 138.245 102.592,137.926 101.392,137.759 100.733 C 137.593 100.073,137.290 98.874,137.086 98.068 C 136.882 97.262,136.589 96.093,136.435 95.470 C 135.884 93.241,135.615 93.433,126.516 102.543 M48.842 102.532 C 53.218 106.892,56.923 110.686,57.076 110.962 C 57.376 111.508,44.820 124.450,43.989 124.450 C 43.188 124.450,35.104 116.063,35.100 115.227 C 35.095 114.261,35.223 113.707,37.554 104.597 C 39.774 95.923,40.174 94.604,40.584 94.604 C 40.750 94.604,44.466 98.171,48.842 102.532 M135.605 94.841 C 135.804 94.967,136.184 95.955,136.450 97.035 C 136.716 98.116,137.194 99.960,137.514 101.133 C 137.833 102.305,138.194 103.744,138.316 104.330 C 138.437 104.917,138.614 105.598,138.710 105.843 C 138.805 106.089,139.041 106.989,139.234 107.842 C 139.428 108.695,139.898 110.566,140.279 111.999 C 140.661 113.433,140.973 114.863,140.973 115.179 C 140.973 115.824,132.593 124.450,131.967 124.450 C 131.414 124.450,118.854 111.769,118.854 111.211 C 118.854 110.799,134.717 94.596,135.108 94.608 C 135.182 94.610,135.406 94.715,135.605 94.841 M81.093 104.211 C 77.547 107.735,74.572 110.847,74.483 111.127 C 74.250 111.861,87.047 124.717,88.010 124.717 C 88.809 124.717,101.344 112.299,101.489 111.364 C 101.604 110.626,88.910 97.800,88.069 97.804 C 87.739 97.805,85.131 100.201,81.093 104.211 M94.965 104.697 C 98.430 108.174,101.266 111.150,101.266 111.312 C 101.266 111.753,88.541 124.305,88.004 124.394 C 87.449 124.485,74.883 111.933,74.883 111.288 C 74.883 110.575,87.598 98.098,88.171 98.248 C 88.442 98.319,91.500 101.221,94.965 104.697 M177.474 109.148 C 177.308 109.584,177.238 118.633,177.282 133.865 L 177.351 157.895 177.416 133.726 L 177.482 109.557 178.074 109.142 C 179.506 108.140,201.666 108.829,203.800 109.942 C 204.202 110.152,204.667 110.324,204.834 110.325 C 206.844 110.336,211.241 114.176,212.768 117.255 C 214.722 121.193,215.144 127.583,213.719 131.646 C 211.024 139.331,205.189 142.578,194.086 142.573 C 188.749 142.571,189.207 141.790,189.207 150.887 L 189.207 158.018 188.557 158.181 C 188.200 158.271,185.573 158.303,182.719 158.253 C 179.866 158.202,177.670 158.249,177.840 158.357 C 178.325 158.665,188.636 158.600,189.225 158.285 C 189.715 158.023,189.740 157.656,189.740 150.874 C 189.740 141.993,189.072 142.920,195.603 142.746 C 205.362 142.485,210.377 139.925,213.283 133.721 C 215.925 128.084,215.367 119.649,212.071 115.390 C 207.479 109.455,204.040 108.469,187.935 108.464 L 177.735 108.461 177.474 109.148 M223.371 108.781 C 222.737 109.415,222.929 157.944,223.567 158.285 C 223.902 158.464,228.577 158.561,236.909 158.561 C 245.241 158.561,249.916 158.464,250.251 158.285 C 251.047 157.859,251.047 147.804,250.251 147.378 C 249.935 147.209,247.153 147.102,243.065 147.102 C 236.743 147.102,236.380 147.075,236.119 146.586 C 235.936 146.245,235.843 139.819,235.843 127.586 C 235.843 113.564,235.766 109.023,235.523 108.781 C 235.070 108.328,223.824 108.328,223.371 108.781 M275.380 109.061 C 275.090 109.390,274.340 110.979,273.715 112.592 C 273.089 114.204,272.472 115.763,272.343 116.056 C 272.214 116.349,271.796 117.368,271.414 118.321 C 271.032 119.274,270.547 120.431,270.336 120.893 C 270.126 121.355,269.953 121.866,269.953 122.029 C 269.953 122.192,269.834 122.534,269.688 122.788 C 269.405 123.281,267.653 127.598,267.282 128.714 C 267.160 129.081,264.480 135.792,261.326 143.628 C 257.071 154.200,255.665 157.964,255.877 158.218 C 256.094 158.480,257.654 158.561,262.483 158.561 C 269.997 158.561,269.432 158.850,270.799 154.297 C 271.792 150.990,271.430 151.107,280.658 151.103 C 289.866 151.098,288.957 150.697,290.509 155.455 C 291.585 158.753,291.100 158.561,298.334 158.561 C 306.032 158.561,305.712 158.721,304.444 155.496 C 303.925 154.177,303.328 152.720,303.116 152.258 C 302.905 151.796,302.732 151.234,302.732 151.008 C 302.732 150.782,302.629 150.534,302.504 150.457 C 302.378 150.380,302.005 149.563,301.673 148.642 C 301.341 147.722,300.865 146.489,300.615 145.903 C 300.076 144.637,299.644 143.560,298.320 140.173 C 297.775 138.781,297.174 137.282,296.984 136.842 C 296.794 136.402,295.728 133.704,294.615 130.846 C 293.502 127.988,292.426 125.290,292.223 124.850 C 292.020 124.410,291.414 122.911,290.876 121.519 C 289.598 118.213,289.150 117.093,288.560 115.737 C 288.293 115.123,288.075 114.491,288.075 114.335 C 288.075 114.178,287.959 113.842,287.817 113.587 C 287.437 112.903,286.568 110.824,286.343 110.060 C 285.883 108.502,285.737 108.461,280.618 108.461 C 276.069 108.461,275.891 108.481,275.380 109.061 M312.112 108.781 C 311.607 109.286,311.653 157.847,312.159 158.267 C 312.415 158.480,314.314 158.550,318.488 158.500 L 324.450 158.428 324.524 134.044 C 324.564 120.633,324.532 109.390,324.452 109.061 C 324.281 108.353,312.800 108.092,312.112 108.781 M335.632 108.794 C 335.563 108.977,335.536 120.220,335.574 133.777 L 335.643 158.428 345.370 158.507 C 355.805 158.591,359.923 158.348,362.676 157.484 C 373.677 154.031,379.829 143.367,378.456 130.132 C 377.229 118.295,370.428 110.932,358.827 108.881 C 355.674 108.324,335.840 108.249,335.632 108.794 M235.136 109.227 C 235.538 109.560,235.576 111.240,235.576 128.354 L 235.576 147.115 236.260 147.375 C 236.637 147.519,239.905 147.635,243.557 147.635 L 250.171 147.635 250.332 148.235 C 250.786 149.929,250.509 157.738,249.984 158.019 C 249.373 158.346,224.433 158.402,223.921 158.077 C 223.449 157.777,223.416 109.651,223.888 109.083 C 224.337 108.541,234.467 108.670,235.136 109.227 M285.522 109.507 C 285.900 109.862,286.209 110.318,286.209 110.521 C 286.209 110.723,286.428 111.392,286.695 112.007 C 287.164 113.085,287.672 114.339,288.552 116.589 C 288.781 117.175,289.187 118.158,289.454 118.773 C 289.721 119.388,289.944 120.047,289.949 120.239 C 289.953 120.430,290.133 120.819,290.348 121.104 C 290.563 121.388,290.740 121.790,290.740 121.996 C 290.740 122.202,290.911 122.749,291.120 123.211 C 292.258 125.722,292.605 126.588,292.605 126.916 C 292.605 127.116,292.781 127.513,292.996 127.797 C 293.211 128.082,293.395 128.494,293.405 128.714 C 293.415 128.934,293.654 129.594,293.937 130.180 C 294.221 130.766,294.456 131.386,294.461 131.557 C 294.466 131.729,294.645 132.208,294.858 132.623 C 295.071 133.038,295.688 134.517,296.228 135.909 C 296.769 137.302,297.420 138.921,297.675 139.507 C 297.930 140.093,298.410 141.326,298.741 142.247 C 299.073 143.167,299.447 143.984,299.572 144.061 C 299.698 144.139,299.804 144.405,299.809 144.653 C 299.814 144.900,300.050 145.583,300.333 146.169 C 300.616 146.755,300.852 147.337,300.857 147.461 C 300.862 147.586,301.034 148.065,301.239 148.527 C 301.443 148.989,302.048 150.506,302.583 151.899 C 303.118 153.291,303.730 154.770,303.943 155.185 C 304.156 155.600,304.331 156.079,304.332 156.251 C 304.333 156.422,304.500 156.881,304.704 157.271 C 305.217 158.255,305.020 158.286,298.250 158.291 C 291.918 158.295,291.774 158.261,291.293 156.645 C 291.105 156.013,290.830 155.197,290.683 154.830 C 290.536 154.464,290.257 153.643,290.063 153.006 C 289.367 150.720,289.861 150.833,280.559 150.833 L 272.326 150.833 271.704 151.504 C 271.362 151.874,270.956 152.623,270.803 153.170 C 270.132 155.567,269.225 157.746,268.755 158.091 C 268.439 158.322,257.294 158.358,256.446 158.131 C 255.805 157.959,255.748 158.228,257.054 155.230 C 257.246 154.790,258.252 152.272,259.290 149.634 C 260.328 146.995,261.402 144.297,261.676 143.638 C 261.949 142.978,262.555 141.479,263.022 140.306 C 263.488 139.134,264.100 137.662,264.380 137.035 C 264.661 136.408,264.890 135.682,264.890 135.423 C 264.890 135.163,265.001 134.836,265.136 134.697 C 265.271 134.558,265.882 133.185,266.492 131.646 C 267.103 130.107,268.012 127.867,268.512 126.669 C 269.012 125.471,269.420 124.372,269.420 124.226 C 269.420 124.080,269.593 123.621,269.804 123.206 C 270.394 122.046,272.085 117.862,272.085 117.564 C 272.085 117.418,272.258 116.959,272.469 116.544 C 272.680 116.129,273.281 114.710,273.805 113.391 C 275.758 108.474,275.353 108.735,280.925 108.809 C 284.661 108.858,284.865 108.889,285.522 109.507 M323.486 108.894 L 324.320 109.061 324.252 133.611 L 324.184 158.161 318.987 158.239 C 316.129 158.282,313.401 158.247,312.925 158.161 L 312.059 158.004 312.059 133.624 L 312.059 109.243 312.658 109.002 C 313.340 108.728,322.214 108.640,323.486 108.894 M359.227 109.351 C 362.912 109.980,367.029 111.488,368.240 112.653 C 368.434 112.839,368.683 112.991,368.793 112.991 C 369.386 112.991,373.666 117.604,374.593 119.241 C 375.805 121.383,376.950 123.986,377.351 125.516 C 379.178 132.473,378.162 141.771,374.979 147.235 C 373.029 150.580,369.473 154.051,366.554 155.456 C 365.382 156.020,364.217 156.589,363.965 156.720 C 361.732 157.877,358.847 158.122,347.235 158.142 L 335.909 158.161 335.841 133.596 L 335.773 109.031 336.374 108.901 C 337.794 108.592,356.995 108.971,359.227 109.351 M59.032 126.186 C 54.449 130.768,52.498 132.894,52.498 133.306 C 52.498 133.908,64.217 145.924,65.446 146.581 C 66.283 147.029,66.232 147.071,73.156 140.197 C 78.202 135.187,79.414 133.847,79.414 133.274 C 79.414 132.452,66.824 119.654,66.015 119.654 C 65.768 119.654,62.626 122.593,59.032 126.186 M102.791 126.261 C 99.167 129.896,96.203 133.013,96.203 133.189 C 96.203 133.966,109.525 146.872,110.135 146.686 C 110.843 146.469,123.651 133.719,123.651 133.230 C 123.651 132.629,110.539 119.654,109.931 119.654 C 109.565 119.654,107.163 121.877,102.791 126.261 M189.807 120.050 C 188.859 120.735,188.874 130.440,189.824 131.333 C 191.046 132.481,198.246 131.903,200.389 130.485 C 204.270 127.917,203.706 122.523,199.334 120.397 C 197.697 119.601,190.777 119.349,189.807 120.050 M348.180 120.080 C 347.602 120.658,347.668 146.577,348.249 147.155 C 349.274 148.175,357.192 147.414,360.188 146.007 C 365.125 143.688,367.960 132.908,365.137 127.190 C 365.008 126.929,364.615 126.129,364.263 125.412 C 362.970 122.775,360.184 120.655,357.065 119.936 C 355.054 119.472,348.684 119.575,348.180 120.080 M198.758 120.552 C 203.740 122.393,203.931 128.725,199.067 130.790 C 197.785 131.334,190.719 131.593,190.145 131.117 C 189.492 130.575,189.549 120.599,190.207 120.189 C 190.913 119.750,197.324 120.022,198.758 120.552 M358.422 120.719 C 363.546 122.747,365.490 126.338,365.490 133.777 C 365.490 143.501,361.619 147.259,351.823 147.043 L 348.434 146.969 348.365 133.598 C 348.300 121.033,348.324 120.218,348.765 120.087 C 350.076 119.696,356.980 120.148,358.422 120.719 M72.820 126.518 C 76.300 130.000,79.147 133.031,79.147 133.254 C 79.147 134.087,66.200 146.648,65.652 146.346 C 64.835 145.897,52.765 133.647,52.765 133.267 C 52.765 132.734,65.483 120.187,66.023 120.187 C 66.282 120.187,69.340 123.036,72.820 126.518 M116.796 126.528 C 120.273 130.016,123.118 133.039,123.118 133.245 C 123.118 133.858,110.552 146.303,109.934 146.302 C 109.320 146.300,96.736 133.845,96.736 133.238 C 96.736 132.623,109.306 120.187,109.927 120.187 C 110.287 120.187,112.639 122.358,116.796 126.528 M280.246 124.930 C 280.054 125.241,279.205 127.706,278.530 129.913 C 278.217 130.939,277.609 132.858,277.180 134.177 C 276.751 135.496,276.318 136.973,276.216 137.460 C 276.115 137.946,275.865 138.665,275.659 139.059 C 274.632 141.029,275.099 141.239,280.500 141.239 C 286.096 141.239,286.248 141.139,285.184 138.175 C 285.026 137.735,284.638 136.476,284.322 135.376 C 284.006 134.277,283.588 132.958,283.394 132.445 C 283.199 131.932,282.960 131.093,282.862 130.580 C 282.764 130.067,282.593 129.527,282.482 129.380 C 282.372 129.234,282.196 128.640,282.091 128.060 C 281.776 126.318,280.611 124.340,280.246 124.930 M280.984 126.176 C 281.221 126.538,281.591 127.468,281.806 128.241 C 282.020 129.014,282.426 130.426,282.707 131.379 C 282.988 132.332,283.603 134.430,284.073 136.043 C 284.544 137.655,285.037 139.088,285.169 139.227 C 286.431 140.554,285.339 140.973,280.613 140.973 C 274.999 140.973,275.315 141.401,276.989 136.057 C 277.634 133.997,278.552 131.053,279.028 129.514 C 280.344 125.260,280.363 125.228,280.984 126.176 M80.946 148.114 C 76.840 152.220,74.350 154.905,74.350 155.228 C 74.350 155.979,87.166 168.688,87.924 168.688 C 88.618 168.688,101.107 156.374,101.398 155.402 C 101.605 154.710,89.280 141.976,88.103 141.667 C 87.645 141.547,86.328 142.733,80.946 148.114 M39.144 146.058 C 34.662 150.559,34.280 151.085,34.710 152.165 C 34.856 152.532,35.130 153.551,35.320 154.430 C 35.816 156.726,36.202 158.221,37.433 162.625 C 37.648 163.394,37.942 164.564,38.085 165.223 C 38.337 166.379,39.192 169.710,39.591 171.086 C 39.829 171.910,40.213 172.418,40.596 172.418 C 41.158 172.418,57.562 155.799,57.562 155.230 C 57.562 154.431,44.817 141.772,44.013 141.772 C 43.590 141.772,42.144 143.045,39.144 146.058 M124.771 148.257 C 121.224 151.824,118.321 154.948,118.321 155.199 C 118.321 155.816,134.742 172.152,135.362 172.152 C 136.027 172.152,136.364 171.671,136.573 170.420 C 136.671 169.833,136.922 168.902,137.130 168.349 C 137.338 167.796,137.509 167.017,137.510 166.617 C 137.511 166.217,137.691 165.546,137.910 165.126 C 138.129 164.706,138.308 164.079,138.308 163.732 C 138.308 163.386,138.482 162.650,138.696 162.097 C 138.909 161.545,139.202 160.493,139.347 159.760 C 139.642 158.267,140.047 156.673,140.635 154.697 C 140.853 153.964,141.089 152.705,141.160 151.899 L 141.290 150.433 136.947 146.103 C 133.570 142.735,132.450 141.772,131.913 141.772 C 131.365 141.772,129.888 143.113,124.771 148.257 M50.863 148.532 C 56.511 154.183,57.316 155.090,57.074 155.527 C 56.469 156.617,40.818 171.960,40.453 171.820 C 40.136 171.698,38.968 167.750,38.107 163.891 C 37.993 163.378,37.227 160.342,36.405 157.144 C 35.165 152.319,34.963 151.231,35.221 150.748 C 35.686 149.877,43.602 142.039,44.016 142.039 C 44.213 142.039,47.295 144.960,50.863 148.532 M94.844 148.547 L 101.332 155.055 100.784 155.808 C 99.894 157.031,88.654 168.068,88.105 168.258 C 87.614 168.428,76.580 157.868,75.090 155.802 L 74.542 155.042 81.040 148.540 C 84.614 144.964,87.722 142.039,87.947 142.039 C 88.172 142.039,91.275 144.967,94.844 148.547 M136.639 146.366 C 139.779 149.501,140.973 150.866,140.973 151.319 C 140.973 151.852,140.230 154.894,138.718 160.560 C 138.036 163.116,136.224 170.159,136.067 170.867 C 135.980 171.259,135.699 171.623,135.443 171.677 C 134.845 171.801,118.854 155.909,118.854 155.191 C 118.854 154.603,131.324 142.039,131.907 142.039 C 132.126 142.039,134.256 143.986,136.639 146.366 M57.080 171.972 C 47.461 181.609,47.688 181.146,52.072 182.138 C 52.966 182.341,54.657 182.766,55.829 183.082 C 57.002 183.399,58.621 183.819,59.427 184.014 C 62.160 184.679,64.083 185.166,66.696 185.855 C 68.129 186.233,69.617 186.542,70.002 186.542 C 70.950 186.542,79.414 178.098,79.414 177.152 C 79.414 176.352,66.735 163.624,65.938 163.624 C 65.603 163.624,62.390 166.651,57.080 171.972 M102.784 170.234 C 97.390 175.632,96.213 176.938,96.365 177.362 C 96.579 177.960,104.262 185.712,105.263 186.340 C 105.957 186.776,106.995 186.591,112.458 185.058 C 115.240 184.277,116.598 183.930,119.121 183.352 C 120.513 183.034,121.892 182.669,122.185 182.542 C 122.478 182.414,123.354 182.183,124.131 182.028 C 125.794 181.695,127.115 181.065,127.115 180.604 C 127.115 180.028,110.507 163.624,109.923 163.624 C 109.581 163.624,107.015 166.000,102.784 170.234 M72.672 170.346 C 76.234 173.896,79.147 176.975,79.147 177.189 C 79.147 177.628,71.423 185.508,70.516 185.993 C 70.024 186.257,69.212 186.124,65.676 185.205 C 63.338 184.598,60.766 183.944,59.960 183.752 C 53.098 182.119,49.300 180.993,49.300 180.592 C 49.300 180.223,65.573 163.891,65.942 163.891 C 66.083 163.891,69.111 166.796,72.672 170.346 M118.378 172.080 C 122.890 176.583,126.582 180.417,126.582 180.600 C 126.582 180.990,123.112 182.047,117.522 183.360 C 116.129 183.687,114.750 184.050,114.457 184.167 C 114.164 184.284,113.384 184.492,112.725 184.630 C 112.065 184.767,110.343 185.194,108.898 185.578 C 107.453 185.962,106.097 186.276,105.885 186.276 C 105.415 186.276,97.165 178.091,96.900 177.362 C 96.714 176.849,109.233 163.891,109.915 163.891 C 110.057 163.891,113.865 167.576,118.378 172.080 " stroke="none" fill="#848484" fill-rule="evenodd"></path></g></svg>