<?xml version="1.0" encoding="UTF-8"?>
<svg width="200px" height="52px" viewBox="0 0 200 52" version="1.1" xmlns="http://www.w3.org/2000/svg" xmlns:xlink="http://www.w3.org/1999/xlink">
    <!-- Generator: Sketch 48.2 (47327) - http://www.bohemiancoding.com/sketch -->
    <title>Page 1</title>
    <desc>Created with Sketch.</desc>
    <defs></defs>
    <g id="Artboard" stroke="none" stroke-width="1" fill="none" fill-rule="evenodd" transform="translate(0.000000, -2.000000)">
        <g id="Page-1" transform="translate(-1.000000, 2.000000)" fill="#3D7ABB">
            <path d="M201.793446,21.9886556 L195.911292,27.7541 C195.728215,27.3339889 195.1596,25.2038778 192.865754,23.6289889 C192.019292,23.0442111 190.582677,22.7549889 189.107292,22.7549889 C186.9556,22.7549889 185.223908,23.7514333 183.821754,25.7971 C182.348523,27.9335444 181.596831,30.6864333 181.596831,33.9671 L181.596831,51.2402111 L174.202677,51.2402111 L174.202677,16.4322111 L181.596831,16.4322111 L181.596831,19.0478778 C184.131908,16.8671 187.323908,15.7608778 191.082369,15.7608778 C193.744523,15.7608778 196.074985,16.4322111 198.004831,17.7622111 C199.6116,18.8536556 200.878062,20.2765444 201.793446,21.9886556" id="Fill-5"></path>
            <path d="M171,51.2481519 L162.265008,51.2481519 L152.297994,35.0204133 L151.394227,35.9318716 L148.525194,38.827957 L148.525194,51.2481519 L141.207667,51.2481519 L141.207667,46.6236559 C138.300266,49.1228159 135.360892,50.4942036 132.875533,51.2271505 C132.875533,51.2271505 132.683696,51.2880544 132.334125,51.3783602 C131.458068,51.5988743 129.590852,52 127.461458,52 L126.434062,52 L126.434062,51.9936996 C121.661577,51.8970934 117.144874,50.1623824 114.322734,46.8420699 C111.449437,43.4797547 110,39.1324765 110,33.8968414 C110,28.6759073 111.449437,24.3244288 114.322734,20.9726142 C117.236529,17.5682964 121.224614,15.8272849 126.163359,15.8272849 C130.166364,15.8272849 133.455308,16.9109543 135.940667,19.0425907 C136.34992,19.3933132 136.776225,19.7944388 137.200398,20.2375672 L132.986372,25.4206989 C131.325914,23.5179772 129.341463,22.6548219 126.534244,22.6548219 C123.882626,22.6548219 121.488923,23.7846942 119.979803,25.733619 C118.411,27.7476478 117.613809,30.4946237 117.613809,33.9241431 C117.613809,37.3473622 118.332134,40.1531418 119.979803,42.1083669 C121.580579,44.0194892 123.692921,44.9078461 126.099413,45.1430612 C126.099413,45.1430612 126.777238,45.1997648 127.429485,45.2060652 C127.964498,45.1997648 128.444091,45.155662 128.635928,45.1346606 C128.657244,45.1283602 128.714795,45.1220598 128.714795,45.1220598 C131.370676,44.7923387 136.82525,43.1794355 141.207667,35.8268649 L141.207667,2 L148.525194,2 L148.525194,28.8376176 L160.34024,16.6211358 L170.322175,16.6211358 L157.690754,29.5663642 L171,51.2481519 Z" id="Fill-1"></path>
            <path d="M84.1499966,29.6764804 C84.6572578,27.7235994 85.5111475,26.1537187 86.6968705,25.0026132 C88.0918388,23.6347547 89.7636872,22.9718695 91.8032999,22.9718695 C93.7562555,22.9718695 95.3414468,23.6347547 96.6560987,25.0026132 C97.7847549,26.1831803 98.6027136,27.7467478 99.1015204,29.6764804 L84.1499966,29.6764804 Z M107,34.0178528 C107,29.0283259 105.70437,24.7500855 103.144815,21.3072909 C100.511284,17.7866336 96.6941433,16 91.8032999,16 C87.1449513,16 83.2982205,17.7655896 80.353992,21.2210106 C77.4668303,24.6343436 76,28.933628 76,34.0052264 C76,39.1610007 77.3970819,43.4834335 80.1574282,46.8441565 C82.9642735,50.2722203 87.2464035,51.9999308 92.1647235,51.9999308 L92.2302448,51.9999308 C97.7847549,52.0146616 102.57626,49.6766758 105.782573,45.4026441 L100.927661,40.5709471 C100.113929,42.0692782 98.4991477,43.2182794 97.4296721,43.8054063 C96.4088089,44.3693849 93.9802959,45.0301658 92.1203382,45.0301658 C89.6263039,45.0301658 87.4281721,44.2304946 86.0585669,42.5532897 C84.8369128,41.0549586 84.0569987,39.0747204 83.7463012,36.6483499 L107,36.6483499 L107,34.0178528 Z" id="Fill-3"></path>
            <path d="M71.4342118,27.549404 L71.4342118,51.240404 L64.2236235,51.240404 L64.2236235,28.408004 C64.2236235,24.473284 62.4765647,22.639484 58.7219765,22.639484 C56.5492706,22.639484 54.7259765,23.542604 53.1419765,25.397604 C52.8137412,25.785564 52.5193882,26.205324 52.2568,26.656884 C51.6956235,27.621484 51.2805647,28.730244 51.0328,29.976804 C50.9480941,30.394444 50.8824471,30.826924 50.8316235,31.280604 C50.7638588,31.889044 50.7320941,32.527164 50.7320941,33.188604 L50.7320941,51.240404 L43.4622118,51.240404 L43.4622118,41.725844 C43.2440941,41.976004 43.0302118,42.217684 42.8057412,42.453004 C38.3269176,47.358684 33.0942118,50.432684 27.3680941,51.522364 C27.1838588,51.554164 27.0038588,51.588084 26.8259765,51.613524 C25.5808,51.802204 24.5389176,51.863684 23.8506824,51.882764 L22.3259765,51.882764 C16.6993882,51.882764 10.4650353,49.902684 6.83538824,45.028804 C3.54668235,40.595884 0.999152941,33.824604 0.999152941,26.381284 C0.999152941,18.937964 3.43656471,12.088244 6.83538824,7.733764 C10.5497412,2.987084 16.5215059,0.881924 22.1438588,0.881924 C26.6883294,0.881924 32.2958588,2.376524 35.2415059,5.314844 C35.9678588,6.048364 36.7746824,6.932404 37.4544471,7.943644 L32.6092706,14.008964 C29.4793882,9.005764 26.3982118,8.272244 22.1438588,8.291324 C19.3316235,8.297684 15.1132706,9.635404 12.5657412,13.247884 C10.2871529,16.480884 8.9128,21.339924 8.9128,26.381284 C8.9128,31.390844 10.3146824,36.006084 12.5212706,39.258164 C13.2433882,40.263044 16.3859765,44.015444 22.8892706,44.015444 C24.0073882,44.015444 25.2356235,43.903084 26.5570353,43.646564 C35.1186824,41.645284 40.3365647,33.504484 42.8057412,28.467364 C43.0492706,27.969164 43.2716235,27.504884 43.4622118,27.076644 L43.4622118,1.526404 L50.7320941,1.526404 L50.7320941,18.908284 C51.5770353,18.225644 52.5448,17.615084 53.6269176,17.095684 C55.6577412,16.112004 57.7669176,15.615924 59.9015059,15.615924 C63.6158588,15.615924 66.4895059,16.605964 68.4356235,18.560604 C70.4325647,20.566124 71.4426824,23.595604 71.4342118,27.549404" id="Fill-8"></path>
        </g>
    </g>
</svg>